<?xml version="1.0" encoding="UTF-8"?>
<svg width="126px" height="86px" viewBox="0 0 126 86" version="1.1" xmlns="http://www.w3.org/2000/svg" xmlns:xlink="http://www.w3.org/1999/xlink">
    <title>04-Graphics component 图形化组件/01-缺省图/区块级/此页面未找到</title>
    <defs>
        <polygon id="path-1" points="0 0 24 0 24 24 0 24"></polygon>
        <polygon id="path-3" points="0 0 10.0663972 0 10.0663972 2.70220606 0 2.70220606"></polygon>
        <polygon id="path-5" points="0 0 10.076431 0 10.076431 2.6911313 0 2.6911313"></polygon>
        <polygon id="path-7" points="0 0 12.389412 0 12.389412 3.03998182 0 3.03998182"></polygon>
        <polygon id="path-9" points="0 0 12.4017612 0 12.4017612 3.02752272 0 3.02752272"></polygon>
        <polygon id="path-11" points="0 0 3.26038364 0 3.26038364 3.32009282 0 3.32009282"></polygon>
        <polygon id="path-13" points="0 0 3.55769167 0 3.55769167 3.58225771 0 3.58225771"></polygon>
    </defs>
    <g id="SQL-控制台易用性优化" stroke="none" stroke-width="1" fill="none" fill-rule="evenodd">
        <g id="2.1-项目空状态（管理员/DBA）" transform="translate(-656.000000, -349.000000)">
            <g id="02-OB-Component业务组件/06-帮助系统/04-空状态引导/01-页面空状态" transform="translate(566.000000, 320.000000)">
                <g id="缺省图" transform="translate(84.000000, 0.000000)">
                    <g id="编组-3备份" transform="translate(3.000000, 18.000000)">
                        <g id="编组-2">
                            <g id="网页">
                                <rect id="矩形" fill-opacity="0" fill="#FFFFFF" x="0" y="0" width="134" height="102"></rect>
                                <path d="M34.938714,32.4818092 L97.242084,32.4818092 C99.9696604,32.4818092 102.180798,34.6929468 102.180798,37.4205232 L102.180798,84 C102.180798,85.1045695 101.285368,86 100.180798,86 L32,86 C30.8954305,86 30,85.1045695 30,84 L30,37.4205232 C30,34.6929468 32.2111376,32.4818092 34.938714,32.4818092 Z" id="矩形" fill="#E2E7F2" fill-rule="nonzero"></path>
                                <g id="分组-2" transform="translate(50.833140, 43.460620)">
                                    <path d="M0,36.5261989 L0,1.68970643 C3.29805282e-16,0.756507338 0.756507338,1.71425892e-16 1.68970643,0 L43.6761482,0 C44.6093473,-4.31566237e-15 45.3658546,0.756507338 45.3658546,1.68970643 L45.3658546,37.6279684 L45.3658546,37.6279684 C45.3658546,37.9526566 45.0994896,38.2159054 44.770958,38.2159054 L1.68970643,38.2159054 C0.756507338,38.2159054 3.17796295e-15,37.459398 0,36.5261989 Z" id="Fill-30" fill="#FFFFFF"></path>
                                    <path d="M4.47486493,28.9392369 C4.14625888,28.9392369 3.87996825,28.6759881 3.87996825,28.3512999 L3.87996825,4.47150345 C3.87996825,4.14674175 4.14625888,3.88356645 4.47486493,3.88356645 L41.0990102,3.88356645 C41.4275419,3.88356645 41.6939069,4.14674175 41.6939069,4.47150345 L41.6939069,28.3512999 C41.6939069,28.6759881 41.4275419,28.9392369 41.0990102,28.9392369 L4.47486493,28.9392369 Z" id="Fill-32" fill="#CED7EC"></path>
                                    <path d="M3.88004261,27.322366 C7.81543292,27.322366 6.77048409,22.3939993 12.7307428,22.3939993 C18.6910015,22.3939993 18.3806063,26.7997561 23.029129,26.7997561 C27.7500896,26.7997561 27.4377853,14.1456369 31.9606361,14.1456369 C36.7347564,14.1456369 35.6571184,25.612067 41.6038544,25.612067 L41.6038544,33.3828941 C41.6038544,33.7078028 41.337192,33.9711251 41.0084372,33.9708314 L4.47441876,33.939744 C4.14611015,33.93945 3.88004261,33.6763482 3.88004261,33.351807 L3.88004261,27.322366 Z" id="Fill-38" fill="#393D65"></path>
                                </g>
                                <path d="M31.9334142,31.0136986 L100.211132,31.0136986 C101.278927,31.0136986 102.144546,31.8691908 102.144546,32.9244939 L102.144546,38.6186638 L30,38.6186638 L30,32.9244939 C30,31.8691908 30.865619,31.0136986 31.9334142,31.0136986 Z" id="路径" fill="#393D65" fill-rule="nonzero"></path>
                                <ellipse id="椭圆形" fill="#FFFFFF" fill-rule="nonzero" cx="34.1326729" cy="34.8161812" rx="1.37997441" ry="1.36383012"></ellipse>
                                <ellipse id="椭圆形" fill="#FFFFFF" fill-rule="nonzero" cx="39.286833" cy="34.8161812" rx="1.37997441" ry="1.36383012"></ellipse>
                                <ellipse id="椭圆形" fill="#FFFFFF" fill-rule="nonzero" cx="44.4417987" cy="34.8161812" rx="1.37997441" ry="1.36383012"></ellipse>
                                <polygon id="路径" fill="#FFFFFF" fill-rule="nonzero" points="53.965475 61.7456559 53.0777156 61.0856353 53.965475 60.4272071 54.8532344 61.0856353"></polygon>
                                <rect id="矩形" fill="#B2BED9" fill-rule="nonzero" x="35.1361893" y="58.3269247" width="10.3276544" height="2.57718512" rx="1.28859256"></rect>
                                <rect id="矩形" fill="#B2BED9" fill-rule="nonzero" x="35.1361893" y="63.288623" width="10.3276544" height="2.49916098" rx="1.24958049"></rect>
                                <rect id="矩形" fill="#B2BED9" fill-rule="nonzero" x="35.1361893" y="68.1492085" width="10.3276544" height="2.49916098" rx="1.24958049"></rect>
                                <ellipse id="椭圆形" fill="#FFFFFF" fill-rule="nonzero" cx="40.3000165" cy="49.022944" rx="5.15577129" ry="5.09545405"></ellipse>
                                <path d="M40.3000165,54.1183994 C41.786012,54.1192153 43.1962793,53.4704222 44.1523443,52.3461355 C43.3990245,50.9327545 41.9155989,50.047985 40.2992109,50.047985 C38.6828228,50.047985 37.1993973,50.9327545 36.4460774,52.3461355 C37.402643,53.4706704 38.8135066,54.1194666 40.3000165,54.1183994 L40.3000165,54.1183994 Z" id="路径" fill="#393D65" fill-rule="nonzero"></path>
                                <ellipse id="椭圆形" fill="#393D65" fill-rule="nonzero" cx="40.3274065" cy="48.3342616" rx="1.93905336" ry="1.91636842"></ellipse>
                            </g>
                            <g id="分组" transform="translate(90.000000, 19.000000)">
                                <g>
                                    <mask id="mask-2" fill="white">
                                        <use xlink:href="#path-1"></use>
                                    </mask>
                                    <g id="Clip-2"></g>
                                    <path d="M11.9999973,-2.69275972e-06 C5.37256876,-2.69275972e-06 -2.67138785e-06,5.37256874 -2.67138785e-06,11.9999973 C-2.67138785e-06,18.6273991 5.37256876,23.9999973 11.9999973,23.9999973 C18.6274259,23.9999973 23.9999973,18.6273991 23.9999973,11.9999973 C23.9999973,5.37256874 18.6274259,-2.69275972e-06 11.9999973,-2.69275972e-06" id="Fill-1" fill="#597EF7" mask="url(#mask-2)"></path>
                                    <path d="M56.2848168,-7.12540843 C49.6573882,-7.12540843 44.2848168,-1.752837 44.2848168,4.87459157 C44.2848168,11.5019934 49.6573882,16.8745916 56.2848168,16.8745916 C62.9122453,16.8745916 68.2848168,11.5019934 68.2848168,4.87459157 C68.2848168,-1.752837 62.9122453,-7.12540843 56.2848168,-7.12540843" id="Fill-1备份" fill="#597EF7" mask="url(#mask-2)"></path>
                                </g>
                                <path d="M15.0873916,6.85841148 C15.6906351,7.42527182 16,8.20271474 16,9.17449828 C16,9.96810275 15.7989103,10.6321468 15.4276776,11.1504153 C15.2884301,11.3285676 14.8553551,11.7497059 14.1128897,12.4137232 C13.834446,12.6728708 13.6178957,12.9482336 13.4786738,13.2397579 C13.3085308,13.5636858 13.2311768,13.9199904 13.2311768,14.3249136 L13.2311768,14.7092529 C13.2311768,14.8698231 13.1068524,15 12.9535266,15 L11.8537276,15 C11.7004018,15 11.5760773,14.8698231 11.5760773,14.7092529 L11.5760773,14.3249136 C11.5760773,13.7256497 11.6689175,13.2073544 11.8700072,12.7862429 C12.0865575,12.3327814 12.6743405,11.6687106 13.6333562,10.7779224 L13.8963394,10.4702097 C14.174732,10.0976632 14.3139794,9.70895511 14.3139794,9.28784355 C14.3139794,8.72098321 14.1592714,8.2836833 13.8653927,7.95972865 C13.5560022,7.6358276 13.1229273,7.47386367 12.5660398,7.47386367 C11.8700072,7.47386367 11.3595527,7.70060781 11.0501878,8.15412288 C10.8082197,8.49193411 10.671404,8.96429093 10.6397149,9.5499126 C10.6314215,9.7030855 10.5092216,9.82230038 10.3627046,9.82230038 L9.27790546,9.82230038 C9.11948587,9.82230038 8.9920898,9.68357371 9.00038321,9.51793792 C9.05237064,8.48032889 9.37594182,7.65729593 9.98289694,7.03656376 C10.6325478,6.340143 11.5296701,6 12.65888,6 C13.664303,6 14.4686363,6.27533599 15.0873916,6.85841148" id="Fill-3" fill="#FFFFFF"></path>
                                <path d="M12.25,18 L11.75,18 C11.3357813,18 11,17.6642187 11,17.25 L11,16.75 C11,16.3357813 11.3357813,16 11.75,16 L12.25,16 C12.6642187,16 13,16.3357813 13,16.75 L13,17.25 C13,17.6642187 12.6642187,18 12.25,18" id="Fill-5" fill="#FFFFFF"></path>
                            </g>
                        </g>
                        <g id="编组" opacity="0.567708333" transform="translate(12.000000, 11.000000)">
                            <g>
                                <mask id="mask-4" fill="white">
                                    <use xlink:href="#path-3"></use>
                                </mask>
                                <g id="Clip-2"></g>
                                <path d="M1.1848503,2.70220606 L8.88270611,2.69848061 C9.53667904,2.69814194 10.0666944,2.09362542 10.0663972,1.34856304 C10.0660998,0.603500668 9.53578726,-0.000338522331 8.88181433,0 L1.18366126,0.00372545427 C0.529688341,0.00406411899 -0.000326986461,0.608580638 -2.98510205e-05,1.35364302 C0.000267534377,2.09870539 0.530580122,2.70254458 1.1848503,2.70220606" id="Fill-1" fill="#E4E6EF" mask="url(#mask-4)"></path>
                            </g>
                            <g transform="translate(2.923569, 5.308869)">
                                <mask id="mask-6" fill="white">
                                    <use xlink:href="#path-5"></use>
                                </mask>
                                <g id="Clip-4"></g>
                                <path d="M1.18605768,2.69113144 L8.89156353,2.68742126 C9.54618636,2.68708398 10.0767284,2.08504499 10.076431,1.34303615 C10.0761333,0.601027304 9.54529369,-0.000337134944 8.89067086,0 L1.18516501,0.00371018601 C0.53024462,0.00404746276 -0.000297430731,0.605749179 0,1.3480953 C0.000297680936,2.09010414 0.531434843,2.69146858 1.18605768,2.69113144" id="Fill-3" fill="#E4E6EF" mask="url(#mask-6)"></path>
                            </g>
                            <path d="M4.768727,2.71793888 L4.768727,2.71726987 L8.82481597,2.71526283 C8.17350993,2.71559734 7.64619174,3.31269082 7.64648765,4.04860435 C7.64648765,4.78451788 8.17469359,5.38094235 8.82570371,5.38060784 L4.76961474,5.38261488 L4.76961474,5.38228037 C5.41618616,5.37559025 5.93817791,4.78150732 5.937882,4.04927336 C5.93758608,3.3173739 5.4150025,2.72395999 4.768727,2.71793888" id="Fill-5" fill="#E4E6EF"></path>
                        </g>
                        <g id="编组备份" opacity="0.567708333" transform="translate(3.000000, 41.000000)">
                            <g id="编组">
                                <mask id="mask-8" fill="white">
                                    <use xlink:href="#path-7"></use>
                                </mask>
                                <g id="Clip-2"></g>
                                <path d="M1.4582773,3.03998182 L10.9325614,3.03579068 C11.7374511,3.03540968 12.3897777,2.3553286 12.389412,1.51713342 C12.389046,0.678938251 11.7363535,-0.000380837622 10.9314638,0 L1.45681386,0.00419113605 C0.651924112,0.00457213386 -0.000402444875,0.684653218 -3.67397172e-05,1.52284839 C0.000329273079,2.36104357 0.653021688,3.04036265 1.4582773,3.03998182" id="Fill-1" fill="#E4E6EF" mask="url(#mask-8)"></path>
                            </g>
                            <g id="编组" transform="translate(3.598239, 5.972477)">
                                <mask id="mask-10" fill="white">
                                    <use xlink:href="#path-9"></use>
                                </mask>
                                <g id="Clip-4"></g>
                                <path d="M1.45976329,3.02752287 L10.9434628,3.02334892 C11.7491524,3.02296948 12.4021273,2.34567561 12.4017612,1.51091566 C12.4013948,0.676155717 11.7480538,-0.000379276812 10.9423641,0 L1.45866463,0.00417395927 C0.652608763,0.00455339561 -0.000366068592,0.681467826 0,1.51660721 C0.000366376536,2.35136716 0.654073653,3.02790215 1.45976329,3.02752287" id="Fill-3" fill="#E4E6EF" mask="url(#mask-10)"></path>
                            </g>
                            <path d="M5.86920247,3.05768124 L5.86920247,3.0569286 L10.861312,3.05467068 C10.0597045,3.055047 9.41069752,3.72677717 9.41106172,4.55467068 C9.41106172,5.38258261 10.0611613,6.05356014 10.8624046,6.05318382 L5.87029507,6.05544174 L5.87029507,6.05506542 C6.66607527,6.04753903 7.30852666,5.37919574 7.30816246,4.55543253 C7.30779826,3.73204564 6.66461847,3.06445499 5.86920247,3.05768124" id="Fill-5" fill="#E4E6EF"></path>
                        </g>
                        <g id="编组" transform="translate(114.952584, 86.527872) scale(-1, -1) rotate(-225.000000) translate(-114.952584, -86.527872) translate(98.079497, 81.520067)">
                            <g transform="translate(10.771071, 6.695518)">
                                <mask id="mask-12" fill="white">
                                    <use xlink:href="#path-11"></use>
                                </mask>
                                <g id="Clip-2"></g>
                                <path d="M3.25174424,1.8294495 C3.15985339,2.74136763 2.35942051,3.40492858 1.46391817,3.31135324 C0.568126865,3.2177779 -0.0834890694,2.402672 0.00869074573,1.49045961 C0.100581596,0.578541483 0.901014473,-0.0850194637 1.79651681,0.00885013368 C2.69201916,0.102425469 3.34363509,0.917531377 3.25174424,1.8294495" id="Fill-1" fill="#E4E6EF" mask="url(#mask-12)"></path>
                            </g>
                            <path d="M24.494204,2.44658704 C24.4015704,3.36355505 23.5946678,4.03079056 22.6919273,3.93669704 C21.7888955,3.84260351 21.1320126,3.02268795 21.2246462,2.10571994 C21.3175711,1.18875194 22.1244737,0.521516426 23.0272143,0.61590584 C23.9299548,0.70970347 24.5868376,1.52961904 24.494204,2.44658704" id="Fill-3" fill="#E4E6EF"></path>
                            <path d="M3.27823534,1.83968484 C3.1856873,2.75674588 2.37850738,3.42369937 1.47556036,3.3297047 C0.57288159,3.23543758 -0.0840754098,2.41591303 0.00874089148,1.49885199 C0.101288938,0.581790952 0.908468852,-0.0851625319 1.81114762,0.00883213808 C2.71409464,0.102826808 3.37105164,0.922623799 3.27823534,1.83968484" id="Fill-5" fill="#E4E6EF"></path>
                            <g transform="translate(30.188484, 4.277389)">
                                <mask id="mask-14" fill="white">
                                    <use xlink:href="#path-13"></use>
                                </mask>
                                <g id="Clip-8"></g>
                                <path d="M3.54845861,1.97398607 C3.44799836,2.95799468 2.57463295,3.6736373 1.59732311,3.57278081 C0.620013276,3.47163197 -0.0907575138,2.59228025 0.00941238918,1.60827164 C0.10987264,0.624263032 0.983238055,-0.0913795928 1.96054789,0.00947690449 C2.93756738,0.11062574 3.64862852,0.989977461 3.54845861,1.97398607" id="Fill-7" fill="#E4E6EF" mask="url(#mask-14)"></path>
                            </g>
                            <polygon id="Fill-9" fill="#E4E6EF" points="12.4233873 8.49809376 12.3833139 8.47249158 1.79289609 1.65605299 1.8771883 1.51751674 12.4278091 8.30863761 23.1141266 2.15358872 23.1492253 2.16781215 32.2721296 5.852535 32.2140924 6.00415681 23.1260104 2.33365739"></polygon>
                        </g>
                    </g>
                </g>
            </g>
        </g>
    </g>
</svg>