<?xml version="1.0" encoding="UTF-8"?>
<svg width="356px" height="131px" viewBox="0 0 356 131" version="1.1" xmlns="http://www.w3.org/2000/svg" xmlns:xlink="http://www.w3.org/1999/xlink">
    <!-- Generator: Sketch 51.2 (57519) - http://www.bohemiancoding.com/sketch -->
    <title>ob</title>
    <desc>Created with Sketch.</desc>
    <defs>
        <path d="M21.010839,19.2906244 L24.8444712,25.9306701 C24.6505532,26.0893995 24.5005601,26.2992215 24.4153413,26.539414 L16.6097492,26.539414 C16.5291996,26.2858314 16.3771932,26.0637851 16.1772088,25.8966101 L19.9927454,19.2879068 C20.1513809,19.3503182 20.3242973,19.3846154 20.5052735,19.3846154 C20.6836055,19.3846154 20.8541115,19.3513131 21.010839,19.2906244 Z M21.5763371,18.8854804 C21.7060666,18.7306457 21.8024487,18.5472391 21.8545231,18.3461538 L29.6481065,18.3461538 C29.6649308,18.4111209 29.68638,18.4742426 29.7120846,18.5351516 L25.6219618,25.6194521 C25.5722481,25.6232256 25.5232642,25.6295925 25.4751468,25.6384168 L21.5763371,18.8854804 Z M19.6394041,16.9152294 C19.3181365,17.1688779 19.1121339,17.5605289 19.1121339,18 C19.1121339,18.3339459 19.2310838,18.6402795 19.4291707,18.8794314 L15.5502318,25.5979507 C15.4987786,25.5879377 15.4463108,25.5807397 15.3929976,25.5765247 L11.3358879,18.5494046 C11.4092228,18.3809731 11.4498661,18.1952039 11.4498661,18 C11.4498661,17.7571714 11.3869717,17.5289427 11.2764902,17.3305275 L15.2867182,10.3846088 C15.4716834,10.3838649 15.6481425,10.3473017 15.8094381,10.2815337 L19.6394041,16.9152294 Z M20.2764299,16.6339751 L16.3685831,9.86538593 C16.4899853,9.71486883 16.5804103,9.53860816 16.6302496,9.34615385 L24.3698403,9.34615385 C24.5088255,9.96517923 25.0648183,10.4278846 25.729547,10.4278846 C25.800408,10.4278846 25.8700333,10.4226265 25.9380496,10.4124814 L29.8583123,17.2025757 C29.7626825,17.3372603 29.6906252,17.4896603 29.6481065,17.6538462 L21.8545231,17.6538462 C21.6998697,17.0566521 21.1544206,16.6153846 20.5052735,16.6153846 C20.4273317,16.6153846 20.3508848,16.6217461 20.2764299,16.6339751 Z M31.0774478,19.3823655 C31.8095886,19.3411212 32.3904957,18.7379846 32.3904957,18 C32.3904957,17.2767884 31.832613,16.68308 31.1212306,16.6207835 L27.031468,9.53710699 C27.0904041,9.38371794 27.1226866,9.21724051 27.1226866,9.04326923 C27.1226866,8.27856727 26.4989567,7.65865385 25.729547,7.65865385 C25.0961793,7.65865385 24.5615296,8.07872945 24.3922639,8.65384615 L16.6302496,8.65384615 C16.598282,8.53040312 16.5496168,8.41362236 16.4867897,8.30602396 L21.338517,-0.0974142674 L29.4786638,-0.0974142674 C30.2580619,-0.0974142674 31.2006798,0.444205394 31.5873778,1.11810939 L40.5770153,16.7844763 C40.9622278,17.4557915 40.9637133,18.5416197 40.5770153,19.2155237 L31.5873778,34.8818906 C31.2021653,35.5532058 30.268307,36.0974143 29.4786638,36.0974143 L21.4476248,36.0974143 L21.4623332,36.0889224 L16.7483301,27.9240294 L24.6920027,27.9240294 C24.947069,28.2067454 25.3174082,28.3846154 25.729547,28.3846154 C26.4989567,28.3846154 27.1226866,27.764702 27.1226866,27 C27.1226866,26.800193 27.0801038,26.6102708 27.003466,26.438709 L31.0774478,19.3823655 Z M14.0809839,9.70377119 L10.0903339,16.6157796 C10.0791635,16.6155168 10.0679605,16.6153846 10.0567265,16.6153846 C9.28731673,16.6153846 8.66358689,17.235298 8.66358689,18 C8.66358689,18.764702 9.28731673,19.3846154 10.0567265,19.3846154 C10.1099779,19.3846154 10.1625314,19.3816459 10.2142287,19.3758645 L14.1357439,26.1681282 C13.9794556,26.3919083 13.8878604,26.6636884 13.8878604,26.9567308 C13.8878604,27.7214327 14.5115902,28.3413462 15.281,28.3413462 C15.317044,28.3413462 15.3527683,28.3399857 15.3881237,28.3373137 L19.8684199,36.0974143 L11.5318832,36.0974143 C10.7524851,36.0974143 9.80986719,35.5557946 9.4231692,34.8818906 L0.433531621,19.2155237 C0.0483191359,18.5442085 0.0468336275,17.4583803 0.433531621,16.7844763 L9.4231692,1.11810939 C9.80838168,0.446794211 10.7422399,-0.0974142674 11.5318832,-0.0974142674 L19.7397009,-0.0974142674 L15.2867079,7.61539597 C15.2848061,7.61538841 15.2829035,7.61538462 15.281,7.61538462 C14.5115902,7.61538462 13.8878604,8.23529804 13.8878604,9 C13.8878604,9.25694513 13.9582799,9.49754354 14.0809839,9.70377119 Z" id="path-1"></path>
    </defs>
    <g id="ob" stroke="none" stroke-width="1" fill="none" fill-rule="evenodd">
        <g id="Logo" transform="translate(75.000000, 48.000000)">
            <g id="Shape-Copy-31" transform="translate(57.515820, 5.142857)" fill="#000000" fill-opacity="0.85">
                <path d="M10.7384258,0.935637973 C9.08020841,0.956441435 7.63684837,1.26630354 6.40782285,1.86577174 C5.17879732,2.46523994 4.13012646,3.34883964 3.26181026,4.51711831 L3.27644774,4.50178944 C2.40760877,5.60820518 1.7661735,6.84820105 1.35161917,8.22287197 C0.937064833,9.59754288 0.730049049,11.111816 0.730049049,12.7656913 C0.730049049,16.0006297 1.5737952,18.7297155 3.26181026,20.9518538 C4.13012646,22.0889273 5.19134374,22.9752643 6.44493931,23.6103174 C7.69801212,24.2464654 9.12934852,24.5743936 10.7384258,24.5951971 C12.3569128,24.5743936 13.8028867,24.2464654 15.0763474,23.6103174 C16.3498081,22.9752643 17.4204352,22.093307 18.2892742,20.9671827 C19.1084503,19.8509127 19.7326342,18.6054422 20.1623488,17.2307713 C20.5920634,15.8561004 20.8063979,14.3681054 20.8063979,12.7656913 C20.8063979,9.47874416 19.9673567,6.72940233 18.2897969,4.51766577 C16.5416637,2.1816559 14.0250627,0.987646629 10.7384258,0.935637973 L10.7384258,0.935637973 Z M16.4088808,19.6182424 C15.7177827,20.5177184 14.9038342,21.1768597 13.96599,21.5945713 C13.0281458,22.0139254 11.952291,22.227982 10.7384258,22.2383838 C9.53397028,22.227982 8.4633432,22.0139254 7.52549897,21.5945713 C6.58765474,21.1763122 5.77841122,20.5226456 5.09724565,19.6335713 C3.72498194,17.938089 3.0098365,15.6491607 2.95076382,12.7651438 C3.0098365,9.86032347 3.7255047,7.56592052 5.09724565,5.8813875 C5.76847865,5.02351839 6.57249449,4.38299072 7.51033872,3.95870958 C8.44766019,3.53497589 9.52403771,3.31270731 10.737903,3.29190385 C11.9716334,3.31270731 13.0595118,3.53442843 14.0025837,3.95870958 C14.9451328,4.38244326 15.7569902,5.02297093 16.4381558,5.8813875 C17.7999641,7.57686971 18.5056998,9.87127266 18.5553626,12.7651438 C18.5156323,15.6081012 17.8004869,17.8921024 16.4088808,19.6182424 L16.4088808,19.6182424 Z"></path>
                <path d="M32.8122943,20.7157138 L32.8271846,20.7157138 C32.4256759,21.0703302 31.9635419,21.3358902 31.4418464,21.5129303 C30.9196191,21.6905067 30.3575068,21.7790267 29.7549777,21.7790267 C28.9716367,21.7688335 28.2792335,21.629884 27.6767044,21.361105 C27.0741753,21.0928626 26.5673702,20.6754774 26.1557572,20.1078764 C25.2921145,18.9737474 24.8602931,17.6008827 24.8602931,15.9903551 C24.8501889,15.1904562 24.9506991,14.4152356 25.1612918,13.6657662 C25.3718845,12.9162969 25.6782011,12.2070639 26.0802417,11.5386037 L26.0653513,11.5536253 C26.2461632,11.2902112 26.4695191,11.0369904 26.7354189,10.7939627 C27.0013188,10.5509351 27.2948722,10.3433155 27.616611,10.1711038 C27.9580265,9.97904224 28.3345407,9.83955618 28.7461536,9.75318212 C29.1577666,9.66734454 29.6044784,9.62442575 30.0868207,9.62442575 C30.5989438,9.62442575 31.0733092,9.69524175 31.5099168,9.83687375 C31.9465243,9.97850576 32.3554783,10.181297 32.7373105,10.4447111 L32.7224201,10.4447111 C33.4249275,11.0219688 33.9120561,12.1212263 34.1832739,13.7419471 L36.4120465,13.7419471 C36.0807353,11.3513705 35.3277069,9.67539181 34.1529613,8.71293797 C33.0085283,7.82183662 31.6529709,7.3760177 30.0868207,7.3760177 C28.811565,7.39640412 27.6995718,7.62923855 26.7508411,8.07505747 C25.8021104,8.52087639 25.0262146,9.16358525 24.4242174,10.0047935 C23.8317925,10.8250789 23.3850807,11.7446139 23.0835503,12.7623257 C22.7825516,13.780574 22.6315205,14.8567626 22.6315205,15.9914281 C22.6315205,18.1995998 23.24894,20.0633482 24.4837789,21.5826733 L24.4688885,21.5676517 C25.0714176,22.3578939 25.8143418,22.9603664 26.6976611,23.3756057 C27.5809805,23.790845 28.6004405,24.0086578 29.7549777,24.0290442 C31.6928559,23.9780782 33.2239072,23.3857989 34.3486636,22.2516699 C35.4728882,21.1175409 36.1908178,19.4104461 36.5024525,17.1314584 L34.2433673,17.1314584 C34.0519194,18.8111925 33.574895,20.0070173 32.8122943,20.7157138 L32.8122943,20.7157138 Z" id="Shape-Copy-17"></path>
                <path d="M51.6325368,11.2427132 C51.4450847,10.8226185 51.2430124,10.4298863 51.0263199,10.0655896 C50.4347231,9.20501243 49.6880476,8.54616657 48.7857712,8.09012506 C47.8834948,7.63408354 46.8266618,7.39640544 45.6137057,7.3760177 C44.7265717,7.3760177 43.8660673,7.57613945 43.0332369,7.97638294 C42.1998844,8.37608991 41.4631298,8.90080592 40.8224509,9.54892139 C40.1718511,10.2780513 39.6590991,11.1622353 39.2847171,12.2004004 C38.9098129,13.2385655 38.712962,14.4054953 38.6931203,15.7022627 C38.6732786,18.0323666 39.2204925,19.9772495 40.3347621,21.5369115 C41.4584304,23.1727592 43.2180783,24.0086565 45.6137057,24.0290442 C47.4276573,24.0188504 48.9554702,23.4721371 50.1976667,22.3878313 C51.0130525,21.6586142 51.6255771,20.6158823 52.0353991,19.2586361 L49.6086758,19.2586361 C49.350048,19.7994593 49.0386204,20.2503068 48.6745531,20.6103424 C47.8955043,21.3802478 46.8606016,21.7702975 45.5693229,21.7804913 C44.731271,21.7702975 44.0216682,21.6383137 43.4399923,21.385613 C42.8583165,21.1323759 42.3899473,20.7321324 42.035407,20.1854191 C41.7101071,19.7089898 41.4511203,19.1826642 41.2589689,18.6053693 C41.0668174,18.0280744 40.9456784,17.379959 40.8965963,16.6604864 L52.4601457,16.6604864 C52.4899083,16.3772042 52.5092279,16.151866 52.5191487,15.9839354 C52.5290696,15.8170779 52.5389905,15.6877767 52.5489113,15.5965684 C52.5588322,15.5053601 52.5635315,15.4420508 52.5635315,15.4066405 L52.5635315,15.3079209 C52.5635315,14.8518794 52.5238481,14.3910092 52.4450033,13.9253104 C52.3672029,13.459075 52.2585955,13.0003509 52.1207478,12.5496746 C51.9823778,12.0989982 51.819989,11.663881 51.6325368,11.2427132 Z M40.985884,14.4108604 C41.2224183,13.0132273 41.7106292,11.89834 42.4499946,11.0683444 C42.8938227,10.6123029 43.3841222,10.2576636 43.9214153,10.0049629 C44.4587084,9.75172573 45.0377735,9.62510714 45.6591328,9.62510714 C46.4084191,9.62510714 47.0809492,9.759237 47.6777674,10.0274967 C48.2740635,10.2962929 48.7648852,10.6788313 49.1491881,11.1751118 L49.1491881,11.1445302 C49.4645671,11.6005717 49.7256425,12.0989982 49.9329363,12.6408829 C50.139708,13.183304 50.2681571,13.7729388 50.3172392,14.411397 L40.985884,14.411397 L40.985884,14.4108604 Z" id="Shape-Copy-18"></path>
                <path d="M67.260073,21.3772447 C67.0778489,21.382073 66.9208145,21.3847553 66.7895059,21.3847553 L66.7895059,12.2995388 C66.7289431,10.4862508 66.131355,9.17993235 64.9983493,8.37951055 C64.472043,8.02490009 63.8926773,7.76631879 63.2602521,7.60483959 C62.627827,7.44282392 61.9471661,7.36718084 61.2188053,7.3768374 C59.205228,7.39722348 57.6874077,7.92404265 56.6653444,8.95675844 C56.1186718,9.45836326 55.7017,10.1241296 55.4133571,10.9395728 C55.1250141,11.7555524 54.9502932,12.7195993 54.8897305,13.8343958 L57.1359116,13.8343958 C57.2473899,12.4266835 57.6445314,11.3784099 58.3273362,10.6895751 C59.0101409,10.0007402 59.9743213,9.64666624 61.2188053,9.62628016 C61.6030839,9.62628016 61.9723559,9.65685928 62.3266211,9.71748104 C62.6808864,9.7781028 62.9890597,9.84891759 63.2527488,9.92992543 C63.5716411,10.061362 63.8347943,10.2845359 64.0272016,10.5983742 C64.148863,10.7501968 64.2421189,10.8923629 64.3080412,11.0237995 C64.3739635,11.155236 64.4216633,11.3070586 64.4522127,11.4798038 C64.482762,11.6825917 64.5052721,11.8977184 64.5202788,12.1251841 C64.5352855,12.3537228 64.5427888,12.5532918 64.5427888,12.7255005 C64.5427888,13.1106901 64.4972328,13.3537136 64.4061207,13.454571 C64.3552051,13.5055362 64.2742761,13.5607932 64.1633338,13.6219514 C64.0518554,13.6825732 63.9403771,13.7383667 63.8294347,13.7893319 C63.5207255,13.8805327 63.0046023,13.9567123 62.2960718,14.0173341 C62.1390374,14.0275271 61.9541335,14.039866 61.7569026,14.0554238 C61.5596717,14.0699087 61.359761,14.0881489 61.1571706,14.1085349 C61.0762417,14.118728 60.9899531,14.1235563 60.899377,14.1235563 C60.8088009,14.1235563 60.7273359,14.128921 60.6565901,14.1385776 L60.5199219,14.1385776 C60.4995557,14.1385776 60.4716861,14.14126 60.4363132,14.1466247 C60.4009403,14.151453 60.3730707,14.1541354 60.3527044,14.1541354 C60.2615923,14.1643284 60.1554736,14.1691567 60.0338121,14.1691567 C59.9121507,14.1691567 59.8006723,14.1793497 59.6999131,14.1997358 C59.4062106,14.1997358 59.1082204,14.2201219 58.8043348,14.2603576 C58.5004492,14.3005933 58.1869164,14.361215 57.8632005,14.4427593 C57.5544913,14.4985528 57.2307753,14.5972643 56.9070594,14.7244091 C56.5833435,14.8504809 56.2794579,15.0001576 55.9964745,15.1723663 C55.7129551,15.3547681 55.4476581,15.5827703 55.1995116,15.8558364 C54.9513651,16.129439 54.7418073,16.4277195 54.5697663,16.7522874 C54.3977252,17.0865117 54.2637368,17.4690189 54.1678011,17.8992725 C54.0713295,18.3300625 54.0236296,18.8037706 54.0236296,19.3198602 C54.0338128,20.0795099 54.1881674,20.7554693 54.4866935,21.348275 C54.7852196,21.9405442 55.1871847,22.4442949 55.6931248,22.8595271 C56.1990649,23.2339872 56.7859339,23.5226112 57.453732,23.725399 C58.12153,23.9281868 58.8552504,24.0290442 59.654357,24.0290442 C61.313669,24.0188512 62.7403772,23.5885977 63.9344816,22.7377472 C64.0411364,22.6717606 64.1595821,22.5880704 64.27642,22.5022343 C64.3927219,22.4158617 64.506344,22.3219785 64.6178223,22.221121 C64.7293007,22.7377472 64.9388585,23.1100613 65.2475677,23.337527 C65.5562769,23.5660657 65.8874961,23.6797985 66.2417614,23.6797985 C66.4239856,23.6797985 66.6158569,23.6218592 66.8184474,23.5054439 C67.0205018,23.3884922 67.2284518,23.2264765 67.4406894,23.0193969 C67.652927,22.8112443 67.860341,22.5633925 68.0629314,22.2742321 C68.2649858,21.9861446 68.4525696,21.6690875 68.6246106,21.3246701 C68.5436817,21.3246701 68.4273797,21.3300348 68.2757049,21.3396914 C68.1240301,21.3493479 67.9627081,21.3573951 67.791203,21.3616869 C67.6191619,21.3670516 67.4422972,21.3724164 67.260073,21.3772447 Z M64.5427888,17.0854388 C64.5427888,17.6728797 64.4211274,18.2501276 64.1783405,18.8177189 C63.9355535,19.3853103 63.6370274,19.8912069 63.2827622,20.3370182 C62.8577511,20.7930226 62.3341245,21.1449507 61.7118825,21.3928025 C61.0896405,21.6411907 60.3886133,21.7704814 59.6098729,21.7806744 C58.3348395,21.7704814 57.4392613,21.4818575 56.923138,20.9148026 C56.8320259,20.8139452 56.7484172,20.7098689 56.6728478,20.6031102 C56.5967424,20.4974245 56.5334999,20.3777904 56.4831202,20.2463538 C56.4322046,20.0741451 56.3866486,19.9121294 56.3464521,19.7603068 C56.3057196,19.6084842 56.2858893,19.4614898 56.2858893,19.3198602 C56.2858893,18.7120332 56.3866486,18.2206215 56.589239,17.8461614 C56.751097,17.511937 56.9686941,17.2635487 57.2420304,17.1015331 C57.4440848,16.9797531 57.6466753,16.8762133 57.8492657,16.7903771 C58.0513201,16.7040045 58.2437274,16.6358721 58.4259516,16.5849069 L58.3954023,16.5999283 C58.6076399,16.5489631 58.8380999,16.5140921 59.0862463,16.4937061 C59.3338568,16.47332 59.5895067,16.4582987 59.8526598,16.4481056 C60.4395289,16.4078699 61.026398,16.3670978 61.613267,16.3263256 C62.2001361,16.2860899 62.7414492,16.2404895 63.2372061,16.1895243 C63.4698099,16.1691382 63.6975902,16.1385591 63.9200109,16.0983234 C64.1424316,16.0580878 64.3498456,16.0071226 64.5422529,15.9465008 L64.5422529,16.1289026 L64.5422529,17.0854388 L64.5427888,17.0854388 Z" id="Shape-Copy-19"></path>
                <path d="M80.1237278,8.95777052 C79.0393222,7.90326864 77.6289035,7.3760177 75.891408,7.3760177 C74.294848,7.39682303 72.9892002,7.83592506 71.9755283,8.69387129 C71.8851168,8.75573978 71.8122558,8.80994315 71.7569453,8.8570289 C71.7016347,8.90301964 71.6388785,8.9626981 71.5686767,9.03496925 L71.5686767,7.7012379 L69.3546597,7.7012379 L69.3546597,24.0290442 L71.5686767,24.0290442 L71.5686767,14.8960506 C71.5686767,14.2138546 71.6792978,13.5442514 71.9000081,12.8883359 C72.1207184,12.2318729 72.4020576,11.6400159 72.7434938,11.112765 L72.7131794,11.143973 C73.0546156,10.7097986 73.4986954,10.360488 74.0459506,10.0976838 C74.5932058,9.83378454 75.2133221,9.69197977 75.9062993,9.67117444 C76.9103983,9.67117444 77.7889849,9.9810644 78.5420592,10.6013918 L78.5271679,10.6013918 C78.8781771,10.8806213 79.131861,11.2682575 79.2876878,11.7643004 C79.4435146,12.2603434 79.5264804,12.8653406 79.5365852,13.578197 L79.5365852,24.0290442 L81.7654935,24.0290442 L81.7654935,13.4851205 C81.7553887,12.5236951 81.614985,11.6630113 81.3437507,10.9036167 C81.0725163,10.1436745 80.6656647,9.49487661 80.1237278,8.95777052 L80.1237278,8.95777052 Z" id="Shape-Copy-20"></path>
                <path d="M99.1646308,14.2849779 C98.4911497,13.6124042 97.7251489,13.1627438 96.8666284,12.9354489 C97.6181569,12.6353102 98.2668283,12.1752435 98.8136764,11.5547012 C99.6628932,10.5929427 100.096547,9.37759989 100.116705,7.90976808 C100.106884,5.94517379 99.5021467,4.47624658 98.3014586,3.50462956 C97.1793346,2.57408992 95.7295152,2.10854624 93.9540681,2.10854624 L92.0287287,2.10854624 C91.4379467,2.10854624 90.8947167,2.10306926 90.3969712,2.09321069 C90.0258588,2.09321069 89.6816236,2.0904722 89.3647826,2.08499521 C89.0479415,2.08006593 88.7481571,2.07732743 88.4649125,2.07732743 C87.5283447,2.07732743 86.8036935,2.10580775 86.2909588,2.16276839 C85.7792579,2.21972903 85.4003925,2.32817332 85.1569469,2.48810126 C84.9129844,2.6485769 84.7713621,2.86820398 84.7325969,3.14753018 C84.6933148,3.42685638 84.6788424,3.78888505 84.688663,4.23306848 C84.688663,4.31577094 84.6912473,4.40395039 84.696416,4.49651143 C84.7010678,4.58962016 84.7036522,4.6827289 84.7036522,4.77583763 L84.7036522,24.786 L93.6036304,24.786 C95.7114248,24.786 97.4243308,24.2530894 98.7413146,23.1883637 C100.078456,22.1126839 100.746769,20.5462664 100.746769,18.4885634 C100.746769,16.7200451 100.21491,15.3190325 99.1511922,14.2849779 L99.1646308,14.2849779 L99.1646308,14.2849779 Z M85.8443835,4.26483499 C85.8340461,4.04794641 85.8371473,3.874326 85.8516196,3.74561687 C85.8666089,3.61636004 85.925532,3.51229734 86.0273553,3.43561956 C86.1302124,3.35729868 86.2961275,3.30636272 86.5251008,3.2806209 C86.754074,3.25433137 87.0838369,3.24173431 87.5133555,3.24173431 C87.7376769,3.24173431 88.0059323,3.2444728 88.3186384,3.24994979 C88.6308277,3.25487907 88.9481856,3.26254685 89.2701954,3.27295312 C89.8558087,3.29376566 90.5308405,3.30910122 91.2973581,3.31950749 C92.0638758,3.32991376 92.9487566,3.33484304 93.9545849,3.33484304 C95.4374839,3.33484304 96.6428239,3.70727798 97.570088,4.45160016 C98.4777111,5.18606376 98.9408263,6.33842127 98.9604673,7.91031578 C98.9501299,9.37869529 98.4627219,10.4850461 97.4966925,11.229916 C96.4815606,11.9950507 95.3010303,12.3778919 93.9540681,12.3778919 L85.8593727,12.3778919 L85.8593727,4.80869954 C85.8593727,4.7155908 85.8567883,4.62248207 85.8516196,4.52937333 C85.8464509,4.4362646 85.8443835,4.34808515 85.8443835,4.26483499 L85.8443835,4.26483499 Z M99.60397,18.5197822 C99.584329,20.2160042 99.0478183,21.4724245 97.9939211,22.2890428 C96.9296865,23.13688 95.5537796,23.5607986 93.8662002,23.5607986 L85.8593727,23.5607986 L85.8593727,13.6025456 L93.9540681,13.6025456 C95.4664286,13.6025456 96.7839293,13.9645743 97.9060533,14.6880839 L97.8915809,14.6880839 C98.9940639,15.4329538 99.5646879,16.7101866 99.60397,18.5197822 L99.60397,18.5197822 Z" id="Shape-Copy-21"></path>
                <path d="M115.335833,22.9731803 C115.280942,22.9044452 115.254025,22.7435043 115.254025,22.4903578 L115.254025,12.2667031 C115.1738,10.4410305 114.630701,9.14903326 113.6242,8.3895937 C112.627726,7.69330106 111.406941,7.35521354 109.962371,7.37700762 C107.98948,7.39824287 106.514298,7.92521233 105.537881,8.95959249 C104.521351,10.0040314 103.967696,11.4603225 103.877971,13.3273479 L105.029616,13.3273479 C105.268706,10.2359427 106.912782,8.66397547 109.962371,8.61144617 C110.440551,8.61144617 110.871758,8.64609315 111.254936,8.71426948 C111.638642,8.78300463 111.990152,8.87521031 112.308411,8.99144536 L112.294161,8.97579833 C112.802426,9.19709198 113.190881,9.52400305 113.460056,9.95709036 C113.599393,10.1571488 113.711813,10.3605601 113.79626,10.5667655 C113.880707,10.7718533 113.947737,10.9964999 113.998405,11.2390288 C114.028489,11.4821165 114.050656,11.7324689 114.065435,11.9912037 C114.080213,12.2493796 114.08813,12.499732 114.08813,12.7428197 C114.08813,13.270348 114.003155,13.6659942 113.833733,13.9297584 C113.72448,14.0666699 113.589365,14.1884931 113.430499,14.2935517 C113.270578,14.3986103 113.101684,14.4835513 112.922235,14.5466982 C112.702673,14.5997864 112.446165,14.6517568 112.152184,14.704845 C111.858204,14.7579331 111.521999,14.7998448 111.143044,14.8316976 C110.604695,14.8847858 110.017261,14.9322857 109.379159,14.9741973 C109.239822,14.984815 109.087817,14.9926385 108.923674,14.9982267 C108.759002,15.0032561 108.59222,15.016109 108.422798,15.0373443 C108.093983,15.0373443 107.775196,15.0585795 107.466437,15.1004912 C107.157678,15.1424029 106.848919,15.2010792 106.539632,15.2748438 C106.220845,15.3592259 105.909975,15.4620492 105.605438,15.5833137 C105.301429,15.705137 105.020116,15.8549013 104.760969,16.0348421 C104.501295,16.2142241 104.257454,16.4360766 104.027864,16.6992819 C103.798802,16.9630461 103.604046,17.2474866 103.445181,17.5537213 C103.10581,18.2399551 102.936916,19.0994239 102.936916,20.1332452 C102.946416,21.6526831 103.454153,22.8077689 104.46171,23.5990613 C105.418072,24.3903538 106.698498,24.786 108.302461,24.786 C109.937037,24.7647648 111.321966,24.3272069 112.457777,23.4722087 C113.155519,22.9446804 113.699146,22.3540052 114.087602,21.6996242 L114.087602,22.5384165 C114.087602,23.2028563 114.208994,23.6778553 114.453363,23.9628547 C114.697731,24.2478541 114.973767,24.3903538 115.283053,24.3903538 C115.552228,24.3903538 115.825625,24.2662952 116.104827,24.0187369 C116.38403,23.7706198 116.61837,23.4509734 116.807848,23.0609154 L115.536922,23.1084153 C115.457753,23.0860624 115.390195,23.0413567 115.335833,22.9731803 L115.335833,22.9731803 Z M114.08813,17.6313976 C114.08813,19.1720708 113.594115,20.5328032 112.60767,21.7147124 C112.089905,22.3372405 111.469748,22.7965925 110.747199,23.0916507 C110.02465,23.3867089 109.190209,23.540385 108.243348,23.5504438 C106.709054,23.5398262 105.617577,23.1492094 104.970503,22.3791522 C104.680745,22.1047704 104.476489,21.7672417 104.357207,21.3665661 C104.188314,20.9128024 104.103867,20.5015091 104.103867,20.1321275 C104.103867,19.3514527 104.232648,18.7021012 104.492322,18.1857493 C104.701328,17.6895151 105.005337,17.33131 105.403821,17.1094575 C105.633411,16.9513108 105.867751,16.8188699 106.106842,16.7138113 C106.345932,16.6087527 106.585022,16.5238117 106.824113,16.4606648 C107.082731,16.3975178 107.349267,16.3528121 107.623719,16.3265474 C107.897644,16.2997239 108.178958,16.2812828 108.468716,16.2706652 C109.105762,16.2287535 109.726447,16.1834889 110.329187,16.1365478 C110.932454,16.0884891 111.502471,16.0331657 112.040292,15.9700188 C112.329523,15.9381659 112.60292,15.8934601 112.863122,15.8353426 C113.12174,15.777225 113.356081,15.7068134 113.565087,15.6218724 C113.66484,15.5799608 113.756676,15.5374903 113.84165,15.4950198 C113.926097,15.4531081 114.007905,15.4056082 114.088658,15.3525201 L114.088658,17.6313976 L114.08813,17.6313976 Z" id="Shape-Copy-22"></path>
                <path d="M128.976848,16.6665672 L128.991349,16.6665672 C128.737858,16.487182 128.474164,16.3396502 128.200265,16.2234131 C127.926366,16.1071759 127.627763,16.0021154 127.303381,15.9071139 L127.317882,15.9071139 C127.013908,15.8020534 126.709397,15.7070518 126.405423,15.6221093 C126.101449,15.5371667 125.796938,15.4639597 125.492964,15.4008116 L125.508539,15.4164589 C124.767938,15.2264559 124.06332,15.029188 123.393611,14.8229788 C122.724439,14.6178873 122.121325,14.4144722 121.584269,14.2138514 C121.148179,14.0450839 120.77761,13.7600794 120.473636,13.3593965 C120.331853,13.1481578 120.228201,12.910654 120.162144,12.6474438 C120.096086,12.3842337 120.063325,12.0673757 120.063325,11.6979874 C120.063325,11.5610734 120.108438,11.3179813 120.199737,10.9698286 C120.280833,10.6635884 120.453765,10.3266124 120.716923,9.95722414 C120.859243,9.76722109 121.033786,9.58783585 121.242164,9.41906843 C121.450005,9.25030102 121.70081,9.10276923 121.99458,8.97591425 L121.980079,8.99156156 C122.273849,8.8753244 122.620787,8.78311704 123.021431,8.71438064 C123.422075,8.64620307 123.880721,8.61155546 124.397369,8.61155546 C125.837754,8.61155546 126.973091,8.93344298 127.804455,9.57721803 C128.646022,10.2316109 129.071907,11.4073945 129.082111,13.1062453 L130.284043,13.1062453 C130.18254,9.23409487 128.220136,7.32400536 124.397369,7.37709444 C123.890925,7.37709444 123.426372,7.40615374 123.005857,7.46427232 C122.584804,7.5223909 122.212087,7.60900994 121.888242,7.7252471 C121.198125,7.99963386 120.620253,8.35840433 120.154088,8.80155851 C119.292112,9.69792586 118.860856,10.6635884 118.860856,11.6979874 C118.860856,13.5337522 119.545603,14.7369186 120.914559,15.3063689 L120.898985,15.2907216 C121.375891,15.5019603 121.905428,15.6992282 122.488671,15.8842017 C123.071377,16.0686165 123.717993,16.2452075 124.427445,16.413975 C124.59984,16.4458284 124.770087,16.477123 124.937111,16.5089765 C125.104136,16.5408299 125.273845,16.5721246 125.446777,16.603978 L125.431203,16.603978 C125.806605,16.6883617 126.120783,16.7727454 126.374274,16.8571291 C126.698656,16.9521307 126.995111,17.0571912 127.264176,17.1734283 C127.532704,17.2896655 127.784046,17.4109322 128.016592,17.5372283 C128.250211,17.6640833 128.4602,17.8060267 128.64817,17.9647352 C128.83614,18.1234436 129.000479,18.30227 129.142262,18.5028909 L129.127761,18.4872436 C129.369974,18.88625 129.491348,19.4104349 129.492422,20.0597982 C129.449995,21.2808473 128.953218,22.1598908 128.002628,22.6969289 C127.49511,22.9919924 126.977925,23.2088194 126.451073,23.3457334 C125.923683,23.4826474 125.375886,23.5513838 124.808218,23.5513838 C121.288888,23.5620016 119.504787,21.8162088 119.454303,18.3128878 L118.267946,18.3128878 C118.277613,22.6494281 120.458062,24.8070804 124.808218,24.7858448 C126.268474,24.7858448 127.585873,24.4270743 128.762563,23.7095334 C129.988662,22.9288443 130.627759,21.7050012 130.67878,20.0380038 C130.67878,19.2047845 130.526793,18.5084792 130.222282,17.9490879 C129.93979,17.4209911 129.524646,16.9934843 128.976848,16.6665672 L128.976848,16.6665672 Z" id="Shape-Copy-23"></path>
                <path d="M145.08202,11.3327048 C144.892557,10.8895335 144.688316,10.4782169 144.469299,10.0981961 C143.901436,9.24370816 143.163638,8.58146603 142.257486,8.11146972 C141.350278,7.64203226 140.289495,7.39725416 139.074079,7.3760177 C137.220611,7.3760177 135.626796,8.13047076 134.291581,9.63937687 C132.90148,11.1589012 132.178986,13.3060187 132.139404,16.0807294 C132.11935,18.5709834 132.672435,20.6286842 133.79866,22.2532731 C134.90483,23.9153053 136.663303,24.7642047 139.074607,24.786 C140.888494,24.7753818 142.412645,24.2159688 143.648115,23.1083199 C144.586793,22.2555715 145.239665,21.0705631 145.607241,19.5565694 L144.348935,19.5565694 C143.493934,22.2113857 141.715831,23.542295 139.014971,23.5514913 C136.982066,23.5302548 135.532329,22.8339226 134.665758,21.4624946 C134.217168,20.798017 133.883628,20.0670358 133.664611,19.2706687 C133.445593,18.4737428 133.325793,17.55331 133.305738,16.5088117 L145.964951,16.5088117 C145.984478,16.2344143 145.997144,16.0421685 146.001894,15.9309565 C146.007171,15.8208623 146.00981,15.7230628 146.00981,15.6386758 C146.00981,15.1535904 145.970228,14.6629165 145.89001,14.1666541 C145.809791,13.6703916 145.70213,13.1847474 145.568081,12.7097214 C145.432976,12.2346954 145.271483,11.7758762 145.08202,11.3327048 Z M133.334765,15.2737441 C133.433982,14.2393051 133.631362,13.3272552 133.924793,12.5359178 C134.218223,11.7445803 134.629871,11.0482481 135.158152,10.4469211 C136.224741,9.24426701 137.544123,8.63232175 139.118938,8.6110853 C141.021488,8.63232175 142.451699,9.29735815 143.408515,10.6050768 C143.866605,11.2483179 144.212811,11.9530329 144.447133,12.7181042 C144.680928,13.4826166 144.808644,14.3348692 144.828699,15.2737441 L133.334765,15.2737441 L133.334765,15.2737441 Z" id="Shape-Copy-24"></path>
            </g>
            <g id="Group">
                <mask id="mask-2" fill="white">
                    <use xlink:href="#path-1"></use>
                </mask>
                <use id="Mask" fill="#FFFFFF" xlink:href="#path-1"></use>
                <path d="M14.0812224,9.704172 L10.1147697,16.6165646 C10.0955201,16.6157805 10.0761698,16.6153846 10.0567265,16.6153846 C9.28731673,16.6153846 8.66358689,17.235298 8.66358689,18 C8.66358689,18.0214786 8.66407895,18.042843 8.66505249,18.0640826 L-0.352362048,18.0640828 L10.0630045,-0.0333316844 L19.6687737,-0.0333316844 L15.2798052,7.61538511 C14.5109446,7.61602649 13.8878604,8.23569391 13.8878604,9 C13.8878604,9.25711161 13.9583712,9.49785531 14.0812224,9.704172 Z" id="Polygon-1" fill="#00E5F3" mask="url(#mask-2)"></path>
                <path d="M15.3480604,28.3397702 L19.7555786,36.0208136 L10.0632709,36.0208136 L-0.352095667,17.9233991 L8.66568274,17.9233993 C8.66429156,17.9487573 8.66358689,17.9742968 8.66358689,18 C8.66358689,18.764702 9.28731673,19.3846154 10.0567265,19.3846154 C10.1068083,19.3846154 10.156273,19.3819889 10.2049885,19.3768669 L14.1173942,26.195071 C13.9723105,26.4135733 13.8878604,26.6753502 13.8878604,26.9567308 C13.8878604,27.7214327 14.5115902,28.3413462 15.281,28.3413462 C15.3034818,28.3413462 15.3258393,28.3408169 15.3480604,28.3397702 Z" id="Polygon-1" fill="#00E5F3" mask="url(#mask-2)"></path>
                <path d="M16.3574746,9.87898231 C16.4844742,9.72552399 16.5789018,9.5444333 16.6302496,9.34615385 L24.3698403,9.34615385 C24.4530292,9.71666862 24.6856139,10.0311807 25.0014907,10.2239911 L21.2211992,16.8119579 C21.0119739,16.6871469 20.7670558,16.6153846 20.5052735,16.6153846 C20.4212971,16.6153846 20.3390562,16.6227693 20.2591722,16.6369208 L16.3574746,9.87898231 Z M15.7940423,10.2877043 L19.6264315,16.9255972 C19.3126016,17.1794813 19.1121339,17.566473 19.1121339,18 C19.1121339,18.0185429 19.1125006,18.0370006 19.1132273,18.0553664 L11.4487727,18.0553666 C11.4494993,18.0370007 11.4498661,18.0185429 11.4498661,18 C11.4498661,17.7772614 11.3969481,17.5668068 11.3029258,17.3803776 L15.3295801,10.3837893 C15.4931265,10.3782189 15.6495163,10.3446312 15.7940423,10.2877043 Z M16.6302496,8.65384615 C16.6016022,8.54322422 16.5595456,8.4379525 16.5059047,8.33984461 L21.3298248,-0.0420478661 L30.8923248,-0.0420478661 L26.381375,7.81924739 C26.1868837,7.71672592 25.9650388,7.65865385 25.729547,7.65865385 C25.0961793,7.65865385 24.5615296,8.07872945 24.3922639,8.65384615 L16.6302496,8.65384615 Z" id="Polygon-1" fill="#00E5F3" mask="url(#mask-2)"></path>
                <path d="M16.1809221,25.8997251 L19.9972412,19.2896665 C20.1546458,19.3509626 20.3260054,19.3846154 20.5052735,19.3846154 C20.7391956,19.3846154 20.9596521,19.3273149 21.1532087,19.226066 L24.9884745,25.8273215 C24.7293408,25.9894235 24.5277133,26.2340224 24.4209001,26.5240385 L16.604765,26.5240385 C16.523537,26.2784194 16.3750348,26.0631378 16.1809221,25.8997251 Z M15.555182,25.5989233 C15.4699259,25.5820116 15.3818626,25.5728335 15.2917637,25.5721558 L11.2970695,18.6311004 C11.3947479,18.4418492 11.4498661,18.227322 11.4498661,18 C11.4498661,17.9814571 11.4494993,17.9629994 11.4487727,17.9446336 L19.1132273,17.9446338 C19.1125006,17.9629996 19.1121339,17.9814572 19.1121339,18 C19.1121339,18.3357698 19.2323867,18.6436249 19.4324235,18.883344 L15.555182,25.5989233 Z M16.6364576,27.9086538 L24.6783351,27.9086538 C24.9337439,28.2002813 25.3099862,28.3846154 25.729547,28.3846154 C25.9649026,28.3846154 26.1866271,28.3266105 26.3810376,28.2241997 L30.9231321,36.0420481 L21.3173629,36.0420481 L16.6364576,27.9086538 Z" id="Polygon-1" fill="#00E5F3" mask="url(#mask-2)"></path>
                <path d="M29.6481065,18.3461538 C29.6658395,18.4146297 29.6887104,18.4810555 29.7162866,18.5450011 L25.6325363,25.6186893 C25.5945022,25.6212894 25.5568879,25.6254067 25.5197542,25.6309809 L21.5830481,18.8774091 C21.7093921,18.7242869 21.8033507,18.5437561 21.8545231,18.3461538 L29.6481065,18.3461538 Z M29.6481065,17.6538462 L21.8545231,17.6538462 C21.7606665,17.291419 21.5228769,16.9864207 21.2053264,16.8026307 L25.0097692,10.229005 C25.2198379,10.3552379 25.4661564,10.4278846 25.729547,10.4278846 C25.7951319,10.4278846 25.8596582,10.4233804 25.92283,10.4146661 L29.8670353,17.1904293 C29.767059,17.3280717 29.6919084,17.4847049 29.6481065,17.6538462 Z" id="Path-618" fill="#00C3E0" mask="url(#mask-2)"></path>
                <path d="M31.11335,16.6201156 L27.0284569,9.54487323 C27.0893036,9.38934321 27.1226866,9.22018087 27.1226866,9.04326923 C27.1226866,8.53649601 26.8487567,8.09331107 26.4400323,7.85199847 L26.465742,7.80719379 L30.9697753,-0.0420478661 L41.3543906,18.0553664 L32.3894023,18.0553666 C32.3901289,18.0370007 32.3904957,18.0185429 32.3904957,18 C32.3904957,17.27412 31.8284886,16.6787006 31.11335,16.6201156 Z" id="Polygon-1" fill="#00D8EB" mask="url(#mask-2)"></path>
                <path d="M31.0644177,19.3830394 C31.8026842,19.3482639 32.3904957,18.7423573 32.3904957,18 C32.3904957,17.9814572 32.390129,17.9629994 32.3894023,17.9446336 L41.3634528,17.9446339 L30.9788374,36.0420481 L26.4373589,28.1928451 C26.8475618,27.951889 27.1226866,27.5078773 27.1226866,27 C27.1226866,26.795416 27.0780434,26.6011952 26.997911,26.4264356 L31.0644177,19.3830394 Z" id="Polygon-1" fill="#00CDE7" mask="url(#mask-2)"></path>
            </g>
        </g>
    </g>
</svg>