<?xml version="1.0" standalone="no"?><!DOCTYPE svg PUBLIC "-//W3C//DTD SVG 1.1//EN" "http://www.w3.org/Graphics/SVG/1.1/DTD/svg11.dtd"><svg t="1689736999860" class="icon" viewBox="0 0 7696 1024" version="1.1" xmlns="http://www.w3.org/2000/svg" p-id="5873" xmlns:xlink="http://www.w3.org/1999/xlink" width="105.21875" height="14"><path d="M4130.192 154.688l-384.48 721.152h191.68l62.48-125.28h256.32l20.464 125.28h191.712l-141.088-721.152h-197.088z m-59.248 453.168l120.64-239.648 39.84 239.648h-160.48zM2534.08 245.12c-28-34.88-63.52-61.024-107.68-80.64-44.16-19.6-93.712-29.392-148.64-29.392-56 0-108.768 9.792-159.392 29.408-49.536 19.6-94.768 46.848-133.536 80.608-39.84 34.864-72.16 75.168-99.088 120.928-26.928 45.76-44.16 95.856-53.856 149.232-8.608 53.376-7.52 103.488 3.232 149.248 10.768 45.76 30.16 86.064 58.16 120.912 28 34.88 63.552 61.008 106.624 80.624 43.072 19.6 92.624 29.408 149.696 29.408 56 0 108.784-9.808 158.32-29.408 50.624-19.616 94.784-46.848 134.624-80.624 39.84-34.848 73.232-75.168 99.088-120.912 26.928-45.76 44.16-95.872 53.84-149.248 8.624-53.376 7.552-103.488-3.232-149.232-10.768-46.848-30.144-87.152-58.144-120.928m-155.088 349.68a248.592 248.592 0 0 1-52.784 63.2c-21.536 17.424-44.16 31.584-68.912 41.392-24.784 9.792-50.624 15.248-77.552 15.248-25.84 0-50.624-5.44-72.16-15.248a159.888 159.888 0 0 1-54.928-41.408c-15.072-17.424-24.768-39.2-31.232-63.184-6.464-23.952-7.52-50.096-2.144-79.52 4.304-28.32 14-55.552 29.072-79.52a248.592 248.592 0 0 1 52.768-63.184c20.48-17.44 43.088-31.584 68.928-41.392 24.768-9.808 50.624-15.248 77.552-15.248 25.84 0 50.608 5.44 72.16 15.248a159.888 159.888 0 0 1 54.928 41.392c15.072 17.44 25.84 39.216 32.304 63.184 6.464 23.968 7.536 51.2 2.144 79.52-6.448 28.32-16.16 54.48-30.144 79.52M3743.552 716.8h-362.944l20.464-124.192h351.088l26.928-159.04h-351.104l20.48-119.84h362.928l26.928-159.04H3295.52l-121.696 721.152h542.8zM4992.848 587.168l-210-432.48h-178.784l-121.696 721.152h178.768l75.392-432.48 208.944 432.48h178.768l121.712-721.152h-178.784zM5794.128 666.688c3.232-21.792 4.32-42.48 3.232-61.008-2.144-19.6-6.464-35.936-15.072-51.2-8.624-15.248-21.536-28.32-37.696-39.2-16.16-10.912-36.624-18.528-61.392-22.88 28-16.352 50.624-37.04 67.84-61.008 16.16-23.968 28-54.48 34.48-90.416 9.696-59.92 1.072-105.68-25.856-137.28-28-31.584-73.232-47.92-136.768-47.92h-290.784L5210.4 876.96h312.32c36.64 0 70.016-4.368 101.248-13.088 31.232-8.704 58.16-21.776 81.856-40.304 23.68-17.424 43.072-40.304 59.232-66.448 11.84-27.232 22.608-56.64 29.072-90.4m-309.088-368.224h57.072c56 0 80.784 22.88 72.16 69.728-7.536 46.832-39.84 69.712-95.84 69.712h-57.088l23.68-139.44z m90.464 413.968c-21.536 11.984-54.928 18.512-100.16 18.512h-63.536l25.84-152.512h63.536c45.248 0 76.48 6.544 93.712 18.528 17.232 11.984 23.68 31.584 19.376 58.816-4.304 25.056-17.232 44.672-38.768 56.64M6862.512 435.744c-14.016-5.44-28-9.808-42.016-14.16a247.936 247.936 0 0 1-37.696-15.248c-10.768-6.544-19.376-13.072-24.768-21.792-5.376-8.72-7.52-18.512-5.376-31.584 3.232-18.528 12.912-33.776 29.072-44.672 16.16-11.984 36.624-17.44 59.232-17.44 18.32 0 36.624 4.368 54.928 12 18.304 7.616 35.536 20.688 52.768 37.04l95.856-145.984c-31.232-19.6-64.608-33.76-100.16-43.568-35.536-9.808-70-15.248-104.464-15.248-36.624 0-71.088 5.44-102.32 17.424-31.232 11.984-59.232 27.232-82.928 47.936a287.28 287.28 0 0 0-60.32 74.08c-16.144 29.408-26.912 60.992-33.376 96.944-6.464 35.952-5.376 65.36 1.088 88.24 6.448 22.88 17.232 42.48 32.304 57.728 15.072 15.264 32.32 27.248 52.768 37.04a1104.32 1104.32 0 0 0 63.552 25.056c18.304 6.544 33.376 13.072 46.304 19.616 12.928 5.44 22.624 11.984 30.16 18.512 7.52 6.544 11.84 14.16 15.072 21.792 2.16 7.632 2.16 17.44 1.072 28.32-3.232 17.44-12.912 33.76-29.072 47.936-17.232 14.16-39.84 20.704-68.928 20.704-25.84 0-50.624-6.544-74.32-18.528-23.68-11.984-47.376-30.496-70-55.552l-102.304 151.424c65.696 54.464 141.072 81.696 228.32 81.696 42 0 80.768-5.44 116.32-17.44 35.52-11.968 65.68-28.32 92.608-50.096a265.904 265.904 0 0 0 65.696-77.344c17.232-30.512 28-63.2 34.464-100.224 9.696-54.464 3.232-99.136-18.304-132.912-21.536-33.76-60.32-60.992-115.232-81.696M3052.128 135.088c-48.48 0-95.856 9.792-143.248 28.32a438.4 438.4 0 0 0-129.232 78.432 491.408 491.408 0 0 0-100.16 119.84c-28 45.744-46.32 96.944-56 152.496-9.696 55.568-7.552 106.768 4.304 153.6 11.84 46.848 32.32 87.152 59.232 120.928 28 33.76 61.392 60.992 102.32 79.52 40.912 18.512 84 28.32 132.464 28.32 23.68 0 47.392-2.176 72.16-7.632 24.768-4.352 51.68-11.968 80.768-22.88l19.392-6.528 37.696-222.24c-53.856 51.2-109.856 76.272-168.016 76.272-25.84 0-49.536-5.44-71.088-15.248a139.76 139.76 0 0 1-51.68-42.496c-14.016-17.44-23.696-39.2-29.088-63.184-5.376-23.968-5.376-50.112-1.072-79.52 4.304-28.32 14-54.464 26.928-78.432 14-23.968 30.144-44.672 49.536-62.08 19.392-17.44 40.928-31.6 65.696-41.408s50.624-15.248 77.536-15.248c61.392 0 107.712 26.144 140 79.52l37.712-223.328c-26.928-13.072-53.856-21.776-78.624-28.32-23.68-6.528-49.536-8.704-77.536-8.704M6420.944 724.432c-29.088-5.44-86.16-8.72-183.088 14.16l22.608 139.44h191.712l-31.232-153.6z" fill="#ffffff" p-id="5874"></path><path d="M6413.408 681.936l-31.248-159.04c-46.304 1.088-104.464 7.616-175.536 26.144-7.552 2.176-16.16 4.352-23.696 6.528-39.84 10.896-76.48 18.528-109.856 23.968l104.48-209.152 22.608 139.44c72.16-18.528 129.232-25.056 175.552-26.144l-64.64-326.816h-196l-384.48 721.168h191.696l68.928-137.28a1097.696 1097.696 0 0 0 206.784-35.936c11.84-3.264 22.624-5.44 33.392-8.72 95.84-22.88 152.928-19.6 182.016-14.16M7372.992 440.096c-142.16 38.128-250.928 33.776-298.32 29.424l-25.856 154.688c14.016 1.088 29.088 2.176 47.392 2.176 70 1.088 173.392-5.44 297.248-38.128 117.392-31.6 187.392-29.408 222.944-22.88l25.84-155.776c-59.232-6.544-146.464-2.176-269.248 30.496M7410.688 161.232c-135.696 35.936-241.248 34.848-290.784 30.496l-37.696 237.488c33.392 3.264 96.928 5.44 179.856-5.44l12.928-82.8c47.392-5.44 99.088-15.264 156.16-30.512 126.016-33.76 196-28.32 229.408-21.776l25.84-155.792c-60.32-8.704-148.624-5.44-275.712 28.32M7339.616 709.168a1081.712 1081.712 0 0 1-123.856 25.056l11.84-76.256a866.72 866.72 0 0 1-133.536 6.544c-17.232 0-33.392-1.088-46.32-2.176l-37.696 230.944c15.088 1.088 32.32 2.176 53.856 3.264 70 1.088 173.392-5.44 297.248-38.128 110.928-29.408 178.784-29.408 216.48-23.968l25.84-154.688c-61.392-7.616-146.464-2.176-263.856 29.408" fill="#ffffff" p-id="5875"></path><path d="M849.68 1024a1331.872 1331.872 0 0 1 91.552-35.952c15.072-5.44 29.072-9.808 44.16-14.16 11.84-3.264 23.68-7.632 35.52-10.88a1390.432 1390.432 0 0 1 533.12-43.584V735.312c-192.784-19.6-392.032-3.264-589.12 53.392-11.84 3.264-23.68 6.528-35.52 10.88-15.088 4.368-31.248 9.808-46.32 15.264-30.16 10.88-60.32 21.776-89.392 33.76L849.68 1024z" fill="#ffffff" p-id="5876"></path><path d="M1552.96 138.352v551.2c-200.32-19.6-407.104-1.072-610.656 58.832-24.768 7.632-49.536 15.264-74.32 23.968-30.144 10.896-60.32 19.616-90.464 29.424-256.32 76.256-516.96 103.488-770.048 84.96v-551.2c198.176 19.6 401.728 2.16 603.12-56.656a1186.16 1186.16 0 0 0 81.856-26.144 2453.92 2453.92 0 0 1 82.928-27.232A2141.072 2141.072 0 0 1 1552.96 138.352z" fill="#ffffff" p-id="5877"></path><path d="M710.752 0A1331.872 1331.872 0 0 1 619.2 35.952c-15.072 5.44-29.072 9.808-44.16 14.16-11.84 3.264-23.68 7.632-35.52 10.88A1390.432 1390.432 0 0 1 6.4 104.592v184.112c192.784 19.6 392.016 3.264 589.12-53.392 11.84-3.264 23.68-6.528 35.52-10.88a766.016 766.016 0 0 0 46.32-15.264c30.16-10.88 60.32-21.776 89.392-33.76L710.752 0z" fill="#ffffff" p-id="5878"></path></svg>