<?xml version="1.0" encoding="UTF-8"?>
<svg width="16px" height="16px" viewBox="0 0 16 16" version="1.1" xmlns="http://www.w3.org/2000/svg" xmlns:xlink="http://www.w3.org/1999/xlink">
    <title>20B78FAB-48F7-48C9-9208-56BF70B8119E</title>
    <defs>
        <linearGradient x1="85.9726962%" y1="14.0273038%" x2="11.1262799%" y2="88.8737201%" id="linearGradient-1">
            <stop stop-color="#C766FF" offset="0%"></stop>
            <stop stop-color="#A56AFE" offset="20%"></stop>
            <stop stop-color="#5076FD" offset="62%"></stop>
            <stop stop-color="#0181FD" offset="100%"></stop>
        </linearGradient>
        <linearGradient x1="119.316455%" y1="-19.330855%" x2="-43.6106466%" y2="143.643123%" id="linearGradient-2">
            <stop stop-color="#C766FF" offset="0%"></stop>
            <stop stop-color="#A56AFE" offset="20%"></stop>
            <stop stop-color="#5076FD" offset="62%"></stop>
            <stop stop-color="#0181FD" offset="100%"></stop>
        </linearGradient>
        <linearGradient x1="191.09589%" y1="-91.0958904%" x2="-124.981975%" y2="225.126172%" id="linearGradient-3">
            <stop stop-color="#C766FF" offset="0%"></stop>
            <stop stop-color="#A56AFE" offset="20%"></stop>
            <stop stop-color="#5076FD" offset="62%"></stop>
            <stop stop-color="#0181FD" offset="100%"></stop>
        </linearGradient>
        <linearGradient x1="419.3302%" y1="-318.860165%" x2="-96.0634548%" y2="196.298472%" id="linearGradient-4">
            <stop stop-color="#C766FF" offset="0%"></stop>
            <stop stop-color="#A56AFE" offset="20%"></stop>
            <stop stop-color="#5076FD" offset="62%"></stop>
            <stop stop-color="#0181FD" offset="100%"></stop>
        </linearGradient>
    </defs>
    <g id="页面-1" stroke="none" stroke-width="1" fill="none" fill-rule="evenodd">
        <g id="切图" transform="translate(-302, -72)" fill-rule="nonzero">
            <g id="编组" transform="translate(302, 72)">
                <path d="M8,16 C3.58771331,16 0,12.4122867 0,8 C0,3.58771331 3.58771331,0 8,0 C12.4122867,0 16,3.58771331 16,8 C16,12.4122867 12.4122867,16 8,16 Z M8,1.06484642 C4.1774744,1.06484642 1.06484642,4.1774744 1.06484642,8 C1.06484642,11.8225256 4.1774744,14.9351536 8,14.9351536 C11.8225256,14.9351536 14.9351536,11.8225256 14.9351536,8 C14.9351536,4.1774744 11.8225256,1.06484642 8,1.06484642 Z" id="形状" fill="url(#linearGradient-1)"></path>
                <path d="M6.30716724,8.73174061 L7.94539249,9.2559727 C8.39317406,9.39795222 8.74266212,9.75290102 8.87918089,10.2006826 L9.38156997,11.8443686 C9.47986348,12.1720137 9.9440273,12.1720137 10.0477816,11.8443686 L10.5720137,10.2061433 C10.7139932,9.75836177 11.068942,9.40887372 11.5167235,9.27235495 L13.1604096,8.76996587 C13.4880546,8.67167235 13.4880546,8.20750853 13.1604096,8.10375427 L11.5221843,7.57952218 C11.0744027,7.43754266 10.7249147,7.08259386 10.5883959,6.63481229 L10.0860068,4.99112628 C9.98771331,4.66348123 9.52354949,4.66348123 9.41979522,4.99112628 L8.90102389,6.62935154 C8.75904437,7.07713311 8.40409556,7.42662116 7.95631399,7.56313993 L6.31262799,8.06552901 C5.98498294,8.16382253 5.98498294,8.62798635 6.31262799,8.73174061 L6.30716724,8.73174061 Z" id="路径" fill="url(#linearGradient-2)"></path>
                <path d="M4.18293515,5.29692833 L5.02935154,5.56450512 C5.25870307,5.63549488 5.43890785,5.82116041 5.50989761,6.05051195 L5.77201365,6.89692833 C5.82116041,7.0662116 6.06143345,7.0662116 6.11604096,6.89692833 L6.38361775,6.05051195 C6.45460751,5.82116041 6.64027304,5.64095563 6.86962457,5.56996587 L7.71604096,5.30784983 C7.88532423,5.25870307 7.88532423,5.01843003 7.71604096,4.96382253 L6.86962457,4.69624573 C6.64027304,4.62525597 6.46006826,4.43959044 6.3890785,4.21023891 L6.12696246,3.36382253 C6.0778157,3.19453925 5.83754266,3.19453925 5.78293515,3.36382253 L5.51535836,4.21023891 C5.4443686,4.43959044 5.25870307,4.61979522 5.02935154,4.69078498 L4.18293515,4.95290102 C4.01365188,5.00204778 4.01365188,5.24232082 4.18293515,5.29692833 Z" id="路径" fill="url(#linearGradient-3)"></path>
                <path d="M4.86006826,11.6914676 L5.37883959,11.8552901 C5.52081911,11.8989761 5.63003413,12.0136519 5.67372014,12.1556314 L5.83208191,12.6744027 C5.86484642,12.778157 6.01228669,12.778157 6.04505119,12.6744027 L6.20887372,12.1556314 C6.25255973,12.0136519 6.36723549,11.9044369 6.50921502,11.8607509 L7.02798635,11.7023891 C7.13174061,11.6696246 7.13174061,11.5221843 7.02798635,11.4894198 L6.50921502,11.3255973 C6.36723549,11.2819113 6.25802048,11.1672355 6.21433447,11.025256 L6.0559727,10.5064846 C6.02320819,10.4027304 5.87576792,10.4027304 5.84300341,10.5064846 L5.67918089,11.025256 C5.63549488,11.1672355 5.52081911,11.2764505 5.37883959,11.3201365 L4.86006826,11.4784983 C4.75631399,11.5112628 4.75631399,11.6587031 4.86006826,11.6914676 L4.86006826,11.6914676 Z" id="路径" fill="url(#linearGradient-4)"></path>
            </g>
        </g>
    </g>
</svg>