<?xml version="1.0" encoding="UTF-8"?>
<svg width="16px" height="16px" viewBox="0 0 16 16" version="1.1" xmlns="http://www.w3.org/2000/svg" xmlns:xlink="http://www.w3.org/1999/xlink">
    <title>magic</title>
    <defs>
        <linearGradient x1="84.8246232%" y1="14.0273038%" x2="12.3669394%" y2="88.8737201%" id="linearGradient-1">
            <stop stop-color="#C766FF" offset="0%"></stop>
            <stop stop-color="#A56AFE" offset="20%"></stop>
            <stop stop-color="#5076FD" offset="62%"></stop>
            <stop stop-color="#0181FD" offset="100%"></stop>
        </linearGradient>
    </defs>
    <g id="草稿" stroke="none" stroke-width="1" fill="none" fill-rule="evenodd">
        <g id="5.-报错解读-入口2" transform="translate(-644, -179)" fill-rule="nonzero">
            <g id="编组-23" transform="translate(632, 168)">
                <g id="magic" transform="translate(12, 11)">
                    <rect id="矩形" fill="#000000" opacity="0" x="0" y="0" width="16" height="16"></rect>
                    <path d="M6.97125074,8.31235966 L2.69248992,12.4992139 L3.55578017,13.3439609 L7.83454099,9.15710668 L6.97125074,8.31235966 Z M7.81749056,7.48429684 L8.68078081,8.32904385 L9.97451965,7.06309416 L9.1112294,6.21834714 L7.81749056,7.48429684 Z M10.9358434,7.77781748 L4.25513928,14.3150624 C3.86644481,14.6954102 3.24505154,14.6954102 2.85635707,14.3150624 L1.73103259,13.2139028 C1.33629304,12.8276397 1.32942148,12.194512 1.71568452,11.7997725 C1.72074487,11.7946011 1.72586119,11.7894848 1.73103259,11.7844244 L8.41173676,5.2471795 C8.80043122,4.86683173 9.42182449,4.86683173 9.81051896,5.2471795 L10.9358434,6.34833913 C11.330583,6.73460217 11.3374546,7.36772986 10.9511915,7.76246941 C10.9461312,7.76764081 10.9410148,7.77275713 10.9358434,7.77781748 Z M12.9749615,2.30839195 L13.8208347,3.13626487 L12.1287891,4.79230344 L11.2829159,3.96443053 L12.9749615,2.30839195 Z M7.72326449,4.13487199 L6.8773238,4.96293481 L5.18514329,3.30710186 L6.03138311,2.47933175 L7.72326449,4.13487199 Z M9.92306923,3.34164108 L8.72654776,3.34164108 L8.72654776,1 L9.92306923,1 L9.92306923,3.34164108 Z M11.7495825,9.00095013 C11.8344013,8.73330167 12.2138534,8.73330167 12.294208,9.00095013 L12.7049091,10.3436532 C12.8165127,10.7094394 13.1022179,10.9993919 13.4682776,11.1153729 L14.8075205,11.5436105 C15.0753691,11.6283658 15.0753691,12.0075344 14.8075205,12.087829 L13.4638134,12.4982233 C13.0977537,12.6097435 12.8075844,12.8952352 12.6915167,13.2610214 L12.262959,14.5992637 C12.1781403,14.8669121 11.7986881,14.8669121 11.7183335,14.5992637 L11.3076324,13.2565606 C11.1960288,12.8907743 10.9103237,12.6008219 10.5442639,12.4848409 L9.20502104,12.0566033 C8.9416366,11.971848 8.9416366,11.5926793 9.20948518,11.5123848 L10.5531922,11.1019905 C10.9192519,10.9904703 11.2094212,10.7049786 11.325489,10.3391924 Z M15.0081661,5.97598729 L15.0081661,7.14694556 L12.6152426,7.14694556 L12.6152426,5.97598729 L15.0081661,5.97598729 Z" id="形状" fill="url(#linearGradient-1)"></path>
                </g>
            </g>
        </g>
    </g>
</svg>