<?xml version="1.0" encoding="UTF-8"?>
<svg width="20px" height="20px" viewBox="0 0 20 20" version="1.1" xmlns="http://www.w3.org/2000/svg" xmlns:xlink="http://www.w3.org/1999/xlink">
    <defs>
        <linearGradient x1="85.9726962%" y1="14.0273038%" x2="11.1262799%" y2="88.8737201%" id="linearGradient-1">
            <stop stop-color="#C766FF" offset="0%"></stop>
            <stop stop-color="#A56AFE" offset="20%"></stop>
            <stop stop-color="#5076FD" offset="62%"></stop>
            <stop stop-color="#0181FD" offset="100%"></stop>
        </linearGradient>
    </defs>
    <g id="AIChat_filled" stroke="none" stroke-width="1" fill="none" fill-rule="evenodd">
        <g id="编组" transform="translate(1, 1)" fill="url(#linearGradient-1)" fill-rule="nonzero">
            <path d="M9,0 C13.9638225,0 18,4.03617747 18,9 C18,13.9638225 13.9638225,18 9,18 C4.03617747,18 0,13.9638225 0,9 C0,4.03617747 4.03617747,0 9,0 Z M6.57337884,11.8197952 L6.3890785,12.403413 C6.33993174,12.5631399 6.2109215,12.6860068 6.05119454,12.7351536 L5.46757679,12.9133106 C5.35085324,12.9501706 5.35085324,13.116041 5.46757679,13.152901 L6.05119454,13.3372014 C6.2109215,13.3863481 6.3337884,13.5153584 6.38293515,13.6750853 L6.56109215,14.2587031 C6.59795222,14.3754266 6.76382253,14.3754266 6.80068259,14.2587031 L6.98498294,13.6750853 C7.03412969,13.5153584 7.16313993,13.3924915 7.32286689,13.3433447 L7.90648464,13.1651877 C8.02320819,13.1283276 8.02320819,12.9624573 7.90648464,12.9255973 L7.32286689,12.7412969 C7.16313993,12.6921502 7.04027304,12.5631399 6.99112628,12.403413 L6.81296928,11.8197952 C6.77610922,11.7030717 6.61023891,11.7030717 6.57337884,11.8197952 Z M10.5972696,5.61501706 L10.0136519,7.45802048 C9.85392491,7.96177474 9.45460751,8.35494881 8.95085324,8.50853242 L7.10170648,9.07372014 C6.7331058,9.18430034 6.7331058,9.70648464 7.10170648,9.82320819 L8.93856655,10.4129693 C9.44232082,10.5726962 9.83549488,10.9720137 9.9890785,11.4757679 L10.5542662,13.3249147 C10.6648464,13.6935154 11.1870307,13.6935154 11.3037543,13.3249147 L11.8935154,11.4819113 C12.0532423,10.978157 12.4525597,10.5849829 12.956314,10.4313993 L14.8054608,9.8662116 C15.1740614,9.7556314 15.1740614,9.2334471 14.8054608,9.11672355 L12.9624573,8.52696246 C12.4587031,8.36723549 12.065529,7.96791809 11.9119454,7.46416382 L11.3467577,5.61501706 C11.2361775,5.24641638 10.7139932,5.24641638 10.5972696,5.61501706 Z M6.50580205,3.78430034 L6.20477816,4.73651877 C6.12491468,4.99453925 5.91604096,5.19726962 5.65802048,5.27713311 L4.70580205,5.57201365 C4.51535836,5.62730375 4.51535836,5.89761092 4.70580205,5.95904437 L5.65802048,6.26006826 C5.91604096,6.33993174 6.11877133,6.54880546 6.19863481,6.80682594 L6.49351536,7.75904437 C6.54880546,7.94948805 6.81911263,7.94948805 6.88054608,7.75904437 L7.18156997,6.80682594 C7.26143345,6.54880546 7.47030717,6.34607509 7.72832765,6.2662116 L8.68054608,5.97133106 C8.87098976,5.91604096 8.87098976,5.64573379 8.68054608,5.58430034 L7.72832765,5.28327645 C7.47030717,5.20341297 7.26757679,4.99453925 7.18771331,4.73651877 L6.89283276,3.78430034 C6.83754266,3.59385666 6.56723549,3.59385666 6.50580205,3.78430034 Z" id="形状结合"></path>
        </g>
    </g>
</svg>