<?xml version="1.0" standalone="no"?><!DOCTYPE svg PUBLIC "-//W3C//DTD SVG 1.1//EN" "http://www.w3.org/Graphics/SVG/1.1/DTD/svg11.dtd"><svg t="1760172418424" class="icon" viewBox="0 0 1024 1024" version="1.1" xmlns="http://www.w3.org/2000/svg" p-id="8461" xmlns:xlink="http://www.w3.org/1999/xlink" width="200" height="200"><path d="M945.088 388.736l-424.96-194.944a19.328 19.328 0 0 0-16.256 0l-424.96 194.944c-8.96 4.096-14.912 14.528-14.912 26.24 0 11.584 5.952 22.016 14.912 26.112l424.96 195.008c5.184 2.432 11.072 2.432 16.256 0L850.56 484.48v155.072c-17.728 10.048-30.08 31.808-30.08 57.088 0 25.344 12.352 47.104 30.08 57.088v54.08h43.52v-54.08c17.728-9.984 30.08-31.744 30.08-57.088 0-25.28-12.352-47.04-30.08-57.088V464.512l51.008-23.424c8.96-4.096 14.912-14.528 14.912-26.176 0-11.648-5.952-22.08-14.912-26.176zM512 675.2a45.312 45.312 0 0 1-18.944-4.224l-264.96-121.536v167.808C228.096 854.72 421.312 896 481.728 896h60.544c45.248 0 253.632-41.28 253.632-178.752V549.44l-264.96 121.6A45.12 45.12 0 0 1 512 675.2z" fill="#006AFF" p-id="8462"></path></svg>