<?xml version="1.0" standalone="no"?><!DOCTYPE svg PUBLIC "-//W3C//DTD SVG 1.1//EN" "http://www.w3.org/Graphics/SVG/1.1/DTD/svg11.dtd"><svg t="1752648021869" class="icon" viewBox="0 0 1024 1024" version="1.1" xmlns="http://www.w3.org/2000/svg" p-id="7606" xmlns:xlink="http://www.w3.org/1999/xlink" width="200" height="200"><path d="M511.36 128a479.872 479.872 0 0 1 423.36 254.208 485.12 485.12 0 0 1-22.592 495.296 32.768 32.768 0 0 1-56.768-3.584 33.216 33.216 0 0 1 2.048-32.96 415.296 415.296 0 0 0 68.288-212.736H870.4a35.584 35.584 0 0 1-32.704-35.52c0-18.624 14.208-34.112 32.64-35.584h52.608a414.272 414.272 0 0 0-83.008-200.576l-32.192 32.128a35.328 35.328 0 0 1-48.256-1.664 35.84 35.84 0 0 1-1.92-48.512l34.176-34.368a411.072 411.072 0 0 0-246.08-108.544c1.152 3.648 1.856 7.424 1.92 11.264v55.68a35.584 35.584 0 0 1-35.328 32.896 35.584 35.584 0 0 1-35.392-32.896v-56.128c0-3.84 0.64-7.68 1.984-11.264a412.16 412.16 0 0 0-247.68 110.08l32.64 33.28a35.84 35.84 0 0 1-1.856 48.512 35.328 35.328 0 0 1-48.256 1.664l-30.72-30.784a415.616 415.616 0 0 0-81.408 199.232h51.008c18.432 1.472 32.64 16.96 32.64 35.584 0 18.56-14.208 34.112-32.64 35.52h-53.44a416.832 416.832 0 0 0 70.72 216.256 32.96 32.96 0 0 1-27.776 51.52 33.024 33.024 0 0 1-27.2-14.336 484.864 484.864 0 0 1-27.072-496.704A479.68 479.68 0 0 1 511.36 128z m94.208 363.456a38.784 38.784 0 0 1 65.088 17.536 39.232 39.232 0 0 1-10.048 37.76l-115.2 115.712a48.768 48.768 0 0 1 0 8.32c0.128 26.24-15.616 50.048-39.744 60.16a64.512 64.512 0 0 1-70.592-13.888 65.28 65.28 0 0 1-14.144-70.912c9.984-24.32 33.6-40.192 59.776-40.192a53.12 53.12 0 0 1 8.96 0l114.944-116.224z" p-id="7607"></path></svg>