<?xml version="1.0" encoding="UTF-8"?>
<svg width="16px" height="16px" viewBox="0 0 16 16" version="1.1" xmlns="http://www.w3.org/2000/svg" xmlns:xlink="http://www.w3.org/1999/xlink">
    <title>Completion_filled</title>
    <defs>
        <linearGradient x1="100%" y1="0.409713137%" x2="1.12132525e-12%" y2="99.5902869%" id="linearGradient-1">
            <stop stop-color="#C766FF" offset="0%"></stop>
            <stop stop-color="#0181FD" offset="99.9972684%"></stop>
        </linearGradient>
        <linearGradient x1="100%" y1="0.409713137%" x2="1.12132525e-12%" y2="99.5902869%" id="linearGradient-2">
            <stop stop-color="#5C6B8A" offset="0%"></stop>
            <stop stop-color="#5C6B8A" offset="99.9972684%"></stop>
        </linearGradient>
    </defs>
    <g id="页面-1" stroke="none" stroke-width="1" fill="none" fill-rule="evenodd">
        <g id="Completion_filled" transform="translate(0.008, 0)" fill-rule="nonzero">
            <rect id="矩形" fill="#5C6B8A" opacity="0" x="0" y="0" width="16" height="16"></rect>
            <path d="M11.5310717,9.16093277 C11.6158931,8.89327478 11.9953574,8.89327478 12.0757145,9.16093277 L12.4864288,10.5036837 C12.598036,10.869483 12.8837502,11.1594458 13.2498217,11.2754309 L14.5891074,11.7036837 C14.8569645,11.7884421 14.8569645,12.1676242 14.5891074,12.2479216 L13.2453574,12.6583305 C12.879286,12.7698547 12.5891074,13.0553566 12.473036,13.4211558 L12.0444645,14.7594458 C11.9596431,15.0271038 11.5801788,15.0271038 11.4998217,14.7594458 L11.0891074,13.4166949 C10.9775002,13.0508956 10.691786,12.7609328 10.3257145,12.6449476 L8.98642882,12.2166949 C8.72303596,12.1319365 8.72303596,11.7527543 8.99089311,11.6724569 L10.3346431,11.262048 C10.7007145,11.1505238 10.9908931,10.865022 11.1069645,10.4992227 L11.5310717,9.16093277 Z M5.466,1.422 L5.466,2.556 L4.64,2.556 C4.108,2.556 3.856,2.85 3.856,3.466 L3.856,6.21 C3.856,7.078 3.45,7.666 2.652,7.96 C3.45,8.296 3.856,8.87 3.856,9.71 L3.856,12.468 C3.856,13.056 4.108,13.364 4.64,13.364 L5.466,13.364 L5.466,14.498 L4.388,14.498 C3.772,14.498 3.296,14.288 2.96,13.896 C2.652,13.532 2.498,13.028 2.498,12.412 L2.498,9.78 C2.498,9.374 2.414,9.08 2.246,8.898 C2.05,8.674 1.7,8.562 1.196,8.534 L1.196,7.386 C1.7,7.358 2.05,7.232 2.246,7.022 C2.414,6.826 2.498,6.532 2.498,6.14 L2.498,3.522 C2.498,2.892 2.652,2.388 2.96,2.024 C3.296,1.618 3.772,1.422 4.388,1.422 L5.466,1.422 Z M11.598,1.422 C12.214,1.422 12.69,1.618 13.026,2.024 C13.334,2.388 13.488,2.892 13.488,3.522 L13.488,6.14 C13.488,6.532 13.572,6.84 13.754,7.036 C13.936,7.232 14.286,7.358 14.79,7.386 L14.79,7.96 L13.334,7.96 C12.5761333,7.6856 12.1841333,7.15509333 12.135235,6.37986252 L12.13,6.21 L12.13,3.466 C12.13,2.85 11.864,2.556 11.346,2.556 L10.52,2.556 L10.52,1.422 L11.598,1.422 Z" id="形状结合" fill="url(#linearGradient-2)"></path>
        </g>
    </g>
</svg>