<?xml version="1.0" encoding="UTF-8"?>
<svg width="56px" height="56px" viewBox="0 0 56 56" version="1.1" xmlns="http://www.w3.org/2000/svg" xmlns:xlink="http://www.w3.org/1999/xlink">
    <title>Z#/2.缺省图/暂无数据-组件</title>
    <g id="大模型集成" stroke="none" stroke-width="1" fill="none" fill-rule="evenodd">
        <g id="1.0-大模型集成-默认态-交互说明" transform="translate(-422, -964)">
            <g id="编组-6备份-4" transform="translate(165, 876)">
                <g id="编组-2" transform="translate(61, 34)">
                    <g id="编组-8" transform="translate(112, 54)">
                        <g id="Z#/2.缺省图/暂无数据-组件" transform="translate(84, 0)">
                            <g id="编组" transform="translate(4.2, 4.2)">
                                <rect id="矩形" fill="#CDD5E4" fill-rule="nonzero" x="5.495" y="0" width="37.121" height="29.176" rx="4.03000021"></rect>
                                <rect id="矩形" fill="#F8F8F8" fill-rule="nonzero" x="11.452" y="5.257" width="25.046" height="1.652" rx="0.826"></rect>
                                <rect id="矩形" fill="#F8F8F8" fill-rule="nonzero" x="11.452" y="10.997" width="16.681" height="1.652" rx="0.826"></rect>
                                <path d="M45.143,48.083 L2.821,48.083 C1.267,48.083 0,46.823 0,45.262 L0,21.028 C0,19.474 1.26,18.207 2.821,18.207 L19.264,18.207 C20.216,18.207 21.098,18.683 21.623,19.481 L23.149,21.798 C23.667,22.589 24.556,23.072 25.508,23.072 L45.15,23.072 C46.704,23.072 47.971,24.332 47.971,25.893 L47.971,45.262 C47.971,46.816 46.711,48.083 45.15,48.083 L45.143,48.083 Z" id="路径" fill="#F3F6FC" fill-rule="nonzero"></path>
                            </g>
                        </g>
                    </g>
                </g>
            </g>
        </g>
    </g>
</svg>