<?xml version="1.0" encoding="UTF-8"?>
<svg width="72px" height="72px" viewBox="0 0 72 72" version="1.1" xmlns="http://www.w3.org/2000/svg" xmlns:xlink="http://www.w3.org/1999/xlink">
    <title>缺省图-设置模型</title>
    <g id="大模型集成" stroke="none" stroke-width="1" fill="none" fill-rule="evenodd">
        <g id="1.1-默认态" transform="translate(-974, -576)">
            <g id="编组" transform="translate(184, 226)">
                <g transform="translate(420, 190)" fill-rule="nonzero" id="编组-3">
                    <g transform="translate(330, 160)">
                        <g id="缺省图-设置模型" transform="translate(40, 0)">
                            <g id="Group">
                                <path d="M63.3014166,0 L8.69858345,0 C3.82075737,0 0,3.9410384 0,8.70566144 L0,16.8232091 L0,16.8232091 L0,63.2943386 C0,68.1772604 3.9378342,72 8.69858345,72 L63.3014166,72 C68.1803684,72 72,68.0589616 72,63.2943386 L72,16.8232091 L72,16.8232091 L72,8.70566144 C72,3.82273965 68.0621658,0 63.3014166,0 L63.3014166,0 Z" id="Path" fill="#F7F9FD"></path>
                                <path d="M0,8.70566144 L0,36.1070322 C14.1730511,37.0951084 31.8752932,40.5764717 41.9067513,44.7653741 L45.3154883,41.5893343 C40.5716251,30.4512252 38.7468026,16.9167214 38.7344195,0 L8.69858345,0 C3.82075737,0 0,3.9410384 0,8.70566144 Z" id="Path" fill="#E0E7F3"></path>
                                <path d="M62.3614247,30.882734 L57.365396,31.8832035 C57.0130398,31.8832035 56.6595578,32.2358464 56.6010194,32.648202 L55.6013634,37.6482959 C55.6013634,38.0009389 55.0137278,38.0009389 54.8955252,37.6482959 L53.8958692,32.648202 C53.8958692,32.2955591 53.5435129,31.9417895 53.1314925,31.8832035 L48.1354639,30.882734 C47.7831077,30.882734 47.7831077,30.2946202 48.1354639,30.1763215 L53.1314925,29.175852 C53.4838488,29.175852 53.8373307,28.8232091 53.8958692,28.4108534 L54.8955252,23.4107596 C54.8955252,23.0581166 55.4831608,23.0581166 55.6013634,23.4107596 L56.6010194,28.4108534 C56.6010194,28.7634964 56.9533757,29.117266 57.365396,29.175852 L62.3614247,30.1763215 C62.7137809,30.1763215 62.7137809,30.7644353 62.3614247,30.882734 Z" id="Path" fill="#0181FD"></path>
                                <path d="M36.2645486,52.2350953 L32.4437912,53.0000939 C32.091435,53.0000939 31.8561556,53.3527368 31.8561556,53.5882077 L31.091779,57.412074 C31.091779,57.6475448 30.6212202,57.6475448 30.5041433,57.412074 L29.7397667,53.5882077 C29.7397667,53.2355647 29.3874105,53.0000939 29.1521311,53.0000939 L25.3313737,52.2350953 C25.0960943,52.2350953 25.0960943,51.7641536 25.3313737,51.6469815 L29.1521311,50.8819829 C29.5044873,50.8819829 29.7397667,50.52934 29.7397667,50.2938691 L30.5041433,46.4700028 C30.5041433,46.234532 30.9747021,46.234532 31.091779,46.4700028 L31.8561556,50.2938691 C31.8561556,50.6465121 32.2085118,50.8819829 32.4437912,50.8819829 L36.2645486,51.6469815 C36.499828,51.6469815 36.499828,52.1179232 36.2645486,52.2350953 Z" id="Path" fill="#0181FD"></path>
                                <rect id="Rectangle" fill="#F7F9FD" x="9.69823947" y="10.6468876" width="22.8052159" height="4.4119801" rx="2.20599005"></rect>
                                <rect id="Rectangle" fill="#F7F9FD" x="9.69823947" y="20.9997183" width="14.3407861" height="4.4119801" rx="2.20599005"></rect>
                            </g>
                            <g id="Group" transform="translate(40.4571, 40.4571)">
                                <path d="M31.5428571,25.0755234 L9.82751941,1.29402362 C8.50978885,-0.149668148 6.26329639,-0.258902236 4.8094835,1.0507807 L1.30082744,4.2106864 C-0.152985447,5.51924321 -0.262985331,7.75009609 1.05587925,9.19378786 L21.4625586,31.5428571 L23.0694641,31.5428571 C27.1031711,31.5428571 30.5494561,28.8390319 31.5428571,25.0766496 L31.5428571,25.0755234 Z" id="Path" fill="#E0E7F3"></path>
                                <path d="M4.69608156,0.901006126 C6.11700789,-0.392911067 8.3669024,-0.274667981 9.66989071,1.13636617 L15.6495751,7.66225837 L6.88700707,15.5406262 L0.907322704,9.01473404 C-0.395665602,7.60369989 -0.276593563,5.36946863 1.14433276,4.07555144 L4.69721558,0.901006126 L4.69608156,0.901006126 Z" id="Path" fill="#0181FD"></path>
                            </g>
                        </g>
                    </g>
                </g>
            </g>
        </g>
    </g>
</svg>