<?xml version="1.0" standalone="no"?><!DOCTYPE svg PUBLIC "-//W3C//DTD SVG 1.1//EN" "http://www.w3.org/Graphics/SVG/1.1/DTD/svg11.dtd"><svg t="1758163041479" class="icon" viewBox="0 0 1024 1024" version="1.1" xmlns="http://www.w3.org/2000/svg" p-id="7728" xmlns:xlink="http://www.w3.org/1999/xlink" width="200" height="200"><path d="M475.428571 97.499429h73.142858v219.428571h-73.142858v-219.428571z m0 609.572571h73.142858v219.428571h-73.142858v-219.428571zM926.500571 475.428571v73.142858h-219.428571v-73.142858h219.428571z m-609.572571 0v73.142858h-219.428571v-73.142858h219.428571z m462.262857-282.331428l51.712 51.638857-155.062857 155.209143-51.785143-51.712 155.136-155.136zM348.233143 624.054857l51.712 51.712-155.136 155.136-51.712-51.638857 155.062857-155.209143zM193.097143 244.809143l51.712-51.712 155.136 155.062857-51.712 51.785143L193.097143 244.809143z m430.957714 430.957714l51.785143-51.712 155.062857 155.136-51.638857 51.712-155.209143-155.062857z" p-id="7729" fill="#ffa21a"></path></svg>