<?xml version="1.0" standalone="no"?><!DOCTYPE svg PUBLIC "-//W3C//DTD SVG 1.1//EN" "http://www.w3.org/Graphics/SVG/1.1/DTD/svg11.dtd"><svg t="1760172403150" class="icon" viewBox="0 0 1024 1024" version="1.1" xmlns="http://www.w3.org/2000/svg" p-id="8153" xmlns:xlink="http://www.w3.org/1999/xlink" width="200" height="200"><path d="M512 85.312a426.688 426.688 0 1 1-219.136 792.832 2786.688 2786.688 0 0 0-20.032-11.776l-104.448 28.48a32 32 0 0 1-39.232-39.296l28.416-104.256a1323.84 1323.84 0 0 1-21.76-37.888A426.688 426.688 0 0 1 512 85.376h-0.064zM512 672a32 32 0 1 0 0 64 32 32 0 0 0 0-64z m-2.56-373.312c-48.384 0-92.736 24.128-118.592 63.36-6.784 10.368-12.16 21.504-16 33.28a32 32 0 1 0 60.928 19.712 72.96 72.96 0 0 1 8.512-17.728c14.08-21.376 38.4-34.624 65.216-34.624 42.752 0 77.184 33.6 77.184 74.624C586.688 478.4 552.256 512 509.44 512a32 32 0 0 0-32 32v64a32 32 0 0 0 64 0v-35.584c62.528-14.208 109.248-69.184 109.248-135.04 0-76.8-63.36-138.688-141.248-138.688z" fill="#FFA21A" p-id="8154"></path></svg>