<?xml version="1.0" standalone="no"?><!DOCTYPE svg PUBLIC "-//W3C//DTD SVG 1.1//EN" "http://www.w3.org/Graphics/SVG/1.1/DTD/svg11.dtd"><svg t="1732177126482" class="icon" viewBox="0 0 1024 1024" version="1.1" xmlns="http://www.w3.org/2000/svg" p-id="5102" xmlns:xlink="http://www.w3.org/1999/xlink" width="200" height="200"><path d="M720.52736 167.6288c-76.45184-43.008-167.26016-62.11584-248.50432-47.77984-19.10784 4.77184-33.44384 19.10784-23.90016 38.21568 4.77184 14.336 19.10784 23.90016 33.44384 23.90016 71.68-9.56416 143.36 4.77184 210.26816 43.008 152.94464 86.016 210.28864 277.15584 138.60864 430.08-4.77184 14.336-14.336 23.90016-14.336 23.90016l-66.90816-38.23616-14.336 215.06048c4.77184 4.77184 205.47584-100.352 205.47584-100.352l-66.90816-38.23616 14.336-28.65152c81.24416-191.1808 9.56416-415.78496-167.23968-520.9088zM352.54272 803.20512c-162.48832-90.80832-215.04-296.28416-124.25216-458.752l71.68 38.23616 14.336-210.26816-205.49632 100.352 66.90816 38.23616c-109.91616 195.93216-33.44384 439.64416 143.36 544.78848 81.24416 47.77984 172.032 62.11584 258.06848 47.77984 19.12832-4.77184 28.672-19.12832 23.90016-38.21568-4.77184-14.336-19.12832-23.90016-33.46432-23.90016-71.65952 14.31552-148.13184-0.02048-215.04-38.25664z m0 0" fill="#999999" p-id="5103"></path></svg>