<?xml version="1.0" encoding="UTF-8"?>
<svg width="14px" height="14px" viewBox="0 0 14 14" version="1.1" xmlns="http://www.w3.org/2000/svg" xmlns:xlink="http://www.w3.org/1999/xlink">
    <title>B30575F9-AE75-4507-82D1-2A81B9BAF9DC</title>
    <g id="Z#/5.对象图标/1.数据库实体/数据库_outlined" stroke="none" fill="none" fill-rule="nonzero">
        <path d="M10.8916992,8.09375 C10.9251953,8.09375 10.9573242,8.10878906 10.977832,8.13544922 L12.7230469,10.365332 C12.7852539,10.4446289 12.7852539,10.5553711 12.7230469,10.6353516 L10.977832,12.8645508 C10.9573242,12.8905273 10.9251953,12.90625 10.8916992,12.90625 L10.1157381,12.90625 C10.0699373,12.90625 10.0446443,12.8536133 10.0726717,12.8180664 L11.8869295,10.5 L10.0726717,8.18193359 C10.0446443,8.14638672 10.0699373,8.09375 10.1157381,8.09375 Z M7,1.3125 C9.66875,1.3125 11.8125,2.1 11.8125,3.0625 L11.8134089,7.43371658 C11.5384315,7.29361539 11.2450956,7.18438215 10.9379668,7.11058252 L10.9378757,5.81855013 C10.0688222,6.26777078 8.63265419,6.5625 7,6.5625 C5.36795207,6.5625 3.93224438,6.26798963 3.06309265,5.81905049 L3.0625,7.83125 C3.27182692,8.08244231 4.48270266,8.69419219 6.69512722,8.74643068 C6.51469971,9.00983041 6.36476901,9.29723642 6.2509986,9.60226199 C4.93326928,9.52922932 3.79648585,9.26036687 3.06309265,8.88155049 L3.0625,10.89375 C3.25131944,11.1203333 4.25505963,11.6402881 6.07372057,11.7783323 C6.13736867,12.0910825 6.23545516,12.3906156 6.36536036,12.6724621 C3.99968139,12.5594496 2.1875,11.8224414 2.1875,10.9375 L2.1875,3.0625 C2.1875,2.1 4.33125,1.3125 7,1.3125 Z M7,2.1875 C4.59375,2.1875 3.28125,2.8 3.0625,3.10625 L3.0625,4.76875 C3.28125,5.03125 4.59375,5.6875 7,5.6875 C9.40625,5.6875 10.71875,5.075 10.9375,4.76875 L10.9375,3.10625 C10.71875,2.84375 9.40625,2.1875 7,2.1875 Z M7.15,10.1 L12,10.1 L12,10.1 L12,10.9 L7.15,10.9 C7.06715729,10.9 7,10.8328427 7,10.75 L7,10.25 C7,10.1671573 7.06715729,10.1 7.15,10.1 Z" id="形状结合" fill="#5C6B8A"></path>
    </g>
</svg>